<svg width="58" height="58" xmlns="http://www.w3.org/2000/svg" xml:space="preserve" version="1.1">

 <g>
  <title>Layer 1</title>
  <g id="svg_1">
   <path id="svg_2" fill="#447588" d="m0,58.5l58.5,0l0,-58.5l-58.5,0l0,58.5z" class="st0"/>
   <g id="svg_3">
    <path id="svg_4" fill="#FFFFFF" d="m52.54,27.29c-0.59,-0.42 -1.31,-0.58 -2.03,-0.45c-0.71,0.12 -1.34,0.52 -1.75,1.12l-2.42,3.45c-0.19,0.27 -0.46,0.44 -0.78,0.5c-0.32,0.06 -0.64,-0.02 -0.91,-0.2c-0.27,-0.19 -0.44,-0.46 -0.5,-0.78c-0.06,-0.32 0.02,-0.64 0.2,-0.91l1.83,-2.61c0.46,-0.66 0.64,-1.46 0.5,-2.25c-0.14,-0.79 -0.58,-1.49 -1.24,-1.95c-0.66,-0.46 -1.46,-0.64 -2.25,-0.5c-0.79,0.14 -1.48,0.58 -1.95,1.24l-5.12,7.32c-0.23,0.33 -0.58,0.55 -0.98,0.62c-0.4,0.07 -0.8,-0.02 -1.13,-0.25s-0.55,-0.58 -0.62,-0.98s0.02,-0.8 0.25,-1.13l4.2,-6c1.19,-1.7 0.78,-4.06 -0.93,-5.25c-0.83,-0.58 -1.83,-0.8 -2.82,-0.62c-0.99,0.17 -1.86,0.73 -2.43,1.55l-8.43,12.04c-0.23,0.33 -0.58,0.55 -0.98,0.62c-0.4,0.07 -0.8,-0.02 -1.13,-0.25c-0.33,-0.23 -0.55,-0.58 -0.62,-0.98c-0.07,-0.4 0.02,-0.8 0.25,-1.13l6.97,-9.96c0.81,-1.15 1.12,-2.55 0.87,-3.94c-0.24,-1.39 -1.01,-2.6 -2.17,-3.4c-2.38,-1.67 -5.68,-1.09 -7.34,1.29l-13.04,18.62l1.23,0.86l13.04,-18.62c1.19,-1.7 3.55,-2.12 5.26,-0.93c0.83,0.58 1.38,1.44 1.55,2.44c0.18,0.99 -0.05,1.99 -0.62,2.82l-6.97,9.96c-0.95,1.36 -0.62,3.25 0.74,4.2c0.66,0.46 1.46,0.64 2.25,0.5c0.79,-0.14 1.48,-0.58 1.95,-1.24l8.43,-12.04c0.35,-0.5 0.87,-0.83 1.47,-0.93c0.6,-0.11 1.2,0.03 1.7,0.38c1.03,0.72 1.28,2.14 0.56,3.16l-4.2,5.99c-0.46,0.66 -0.64,1.46 -0.5,2.25c0.14,0.79 0.58,1.48 1.24,1.95c0.66,0.46 1.46,0.64 2.25,0.5c0.79,-0.14 1.48,-0.58 1.95,-1.24l5.12,-7.32c0.23,-0.33 0.58,-0.55 0.98,-0.62c0.4,-0.07 0.8,0.02 1.13,0.25c0.33,0.23 0.55,0.58 0.62,0.98c0.07,0.4 -0.02,0.8 -0.25,1.13l-1.83,2.61c-0.42,0.59 -0.58,1.31 -0.45,2.03s0.52,1.34 1.12,1.75c0.46,0.32 1,0.49 1.55,0.49c0.16,0 0.32,-0.01 0.48,-0.04c0.71,-0.12 1.34,-0.52 1.75,-1.12l2.42,-3.45c0.38,-0.55 1.14,-0.68 1.69,-0.3l0.84,-1.23zm-0.86,4.62c-0.42,0 -0.76,0.34 -0.76,0.76s0.34,0.76 0.76,0.76s0.76,-0.34 0.76,-0.76s-0.34,-0.76 -0.76,-0.76z" class="st1"/>
    <g id="svg_5">
     <path id="svg_6" fill="#FFFFFF" d="m8.39,38.22l5.95,0l0,1.2l-4.53,0l0,3.67l4.18,0l0,1.18l-4.18,0l0,5l-1.43,0l0,-11.05l0.01,0z" class="st1"/>
     <path id="svg_7" fill="#FFFFFF" d="m18.01,38.22l1.43,0l0,9.86l4.72,0l0,1.2l-6.15,0l0,-11.06z" class="st1"/>
     <path id="svg_8" fill="#FFFFFF" d="m35.87,43.63c0,3.81 -2.31,5.82 -5.13,5.82c-2.92,0 -4.97,-2.26 -4.97,-5.61c0,-3.51 2.18,-5.81 5.13,-5.81c3.02,0.01 4.97,2.32 4.97,5.6zm-8.57,0.18c0,2.36 1.28,4.48 3.53,4.48c2.26,0 3.54,-2.08 3.54,-4.59c0,-2.2 -1.15,-4.5 -3.53,-4.5c-2.36,0 -3.54,2.18 -3.54,4.61z" class="st1"/>
     <path id="svg_9" fill="#FFFFFF" d="m40.51,49.27l-2.8,-11.06l1.51,0l1.31,5.59c0.33,1.38 0.62,2.76 0.82,3.82l0.03,0c0.18,-1.1 0.52,-2.41 0.9,-3.84l1.48,-5.58l1.49,0l1.35,5.61c0.31,1.31 0.61,2.62 0.77,3.79l0.03,0c0.23,-1.21 0.54,-2.44 0.89,-3.82l1.46,-5.58l1.46,0l-3.13,11.06l-1.49,0l-1.39,-5.76c-0.34,-1.41 -0.57,-2.49 -0.72,-3.61l-0.03,0c-0.2,1.1 -0.44,2.18 -0.85,3.61l-1.57,5.76l-1.52,0l0,0.01z" class="st1"/>
    </g>
   </g>
  </g>
 </g>
</svg>