<?xml version="1.0" encoding="utf-8"?>
<!-- Generator: Adobe Illustrator 25.4.1, SVG Export Plug-In . SVG Version: 6.00 Build 0)  -->
<svg version="1.1" id="Réteg_1" xmlns="http://www.w3.org/2000/svg" xmlns:xlink="http://www.w3.org/1999/xlink" x="0px" y="0px"
	 viewBox="0 0 595.28 841.89" style="enable-background:new 0 0 595.28 841.89;" xml:space="preserve">
<style type="text/css">
	.st0{fill:#447588;}
</style>
<g>
	<path class="st0" d="M328.25,451.25h-61.5v-61.5h61.5V451.25z M268.25,449.75h58.5v-58.5h-58.5V449.75z"/>
	<g>
		<path class="st0" d="M320.79,418.54c-0.59-0.42-1.31-0.58-2.03-0.45c-0.71,0.12-1.34,0.52-1.75,1.12l-2.42,3.45
			c-0.19,0.27-0.46,0.44-0.78,0.5c-0.32,0.06-0.64-0.02-0.91-0.2c-0.27-0.19-0.44-0.46-0.5-0.78c-0.06-0.32,0.02-0.64,0.2-0.91
			l1.83-2.61c0.46-0.66,0.64-1.46,0.5-2.25c-0.14-0.79-0.58-1.49-1.24-1.95c-0.66-0.46-1.46-0.64-2.25-0.5
			c-0.79,0.14-1.48,0.58-1.95,1.24l-5.12,7.32c-0.23,0.33-0.58,0.55-0.98,0.62c-0.4,0.07-0.8-0.02-1.13-0.25s-0.55-0.58-0.62-0.98
			s0.02-0.8,0.25-1.13l4.2-6c1.19-1.7,0.78-4.06-0.93-5.25c-0.83-0.58-1.83-0.8-2.82-0.62c-0.99,0.17-1.86,0.73-2.43,1.55
			l-8.43,12.04c-0.23,0.33-0.58,0.55-0.98,0.62c-0.4,0.07-0.8-0.02-1.13-0.25c-0.33-0.23-0.55-0.58-0.62-0.98
			c-0.07-0.4,0.02-0.8,0.25-1.13l6.97-9.96c0.81-1.15,1.12-2.55,0.87-3.94c-0.24-1.39-1.01-2.6-2.17-3.4
			c-2.38-1.67-5.68-1.09-7.34,1.29l-13.04,18.62l1.23,0.86l13.04-18.62c1.19-1.7,3.55-2.12,5.26-0.93c0.83,0.58,1.38,1.44,1.55,2.44
			c0.18,0.99-0.05,1.99-0.62,2.82l-6.97,9.96c-0.95,1.36-0.62,3.25,0.74,4.2c0.66,0.46,1.46,0.64,2.25,0.5
			c0.79-0.14,1.48-0.58,1.95-1.24l8.43-12.04c0.35-0.5,0.87-0.83,1.47-0.93c0.6-0.11,1.2,0.03,1.7,0.38
			c1.03,0.72,1.28,2.14,0.56,3.16l-4.2,5.99c-0.46,0.66-0.64,1.46-0.5,2.25c0.14,0.79,0.58,1.48,1.24,1.95
			c0.66,0.46,1.46,0.64,2.25,0.5c0.79-0.14,1.48-0.58,1.95-1.24l5.12-7.32c0.23-0.33,0.58-0.55,0.98-0.62
			c0.4-0.07,0.8,0.02,1.13,0.25c0.33,0.23,0.55,0.58,0.62,0.98c0.07,0.4-0.02,0.8-0.25,1.13l-1.83,2.61
			c-0.42,0.59-0.58,1.31-0.45,2.03s0.52,1.34,1.12,1.75c0.46,0.32,1,0.49,1.55,0.49c0.16,0,0.32-0.01,0.48-0.04
			c0.71-0.12,1.34-0.52,1.75-1.12l2.42-3.45c0.38-0.55,1.14-0.68,1.69-0.3L320.79,418.54z M319.93,423.16
			c-0.42,0-0.76,0.34-0.76,0.76s0.34,0.76,0.76,0.76s0.76-0.34,0.76-0.76S320.35,423.16,319.93,423.16z"/>
		<g>
			<path class="st0" d="M276.64,429.47h5.95v1.2h-4.53v3.67h4.18v1.18h-4.18v5h-1.43V429.47z"/>
			<path class="st0" d="M286.26,429.47h1.43v9.86h4.72v1.2h-6.15V429.47z"/>
			<path class="st0" d="M304.12,434.88c0,3.81-2.31,5.82-5.13,5.82c-2.92,0-4.97-2.26-4.97-5.61c0-3.51,2.18-5.81,5.13-5.81
				C302.17,429.29,304.12,431.6,304.12,434.88z M295.55,435.06c0,2.36,1.28,4.48,3.53,4.48c2.26,0,3.54-2.08,3.54-4.59
				c0-2.2-1.15-4.49-3.53-4.49C296.73,430.45,295.55,432.63,295.55,435.06z"/>
			<path class="st0" d="M308.76,440.52l-2.8-11.06h1.51l1.31,5.59c0.33,1.38,0.62,2.76,0.82,3.82h0.03c0.18-1.1,0.52-2.41,0.9-3.84
				l1.48-5.58h1.49l1.35,5.61c0.31,1.31,0.61,2.62,0.77,3.79h0.03c0.23-1.21,0.54-2.44,0.89-3.82l1.46-5.58h1.46l-3.13,11.06h-1.49
				l-1.39-5.76c-0.34-1.41-0.57-2.49-0.72-3.61h-0.03c-0.2,1.1-0.44,2.18-0.85,3.61l-1.57,5.76H308.76z"/>
		</g>
	</g>
</g>
</svg>
