<?xml version="1.0" encoding="utf-8"?>
<!-- Generator: Adobe Illustrator 25.4.1, SVG Export Plug-In . SVG Version: 6.00 Build 0)  -->
<svg version="1.1" id="Réteg_1" xmlns="http://www.w3.org/2000/svg" xmlns:xlink="http://www.w3.org/1999/xlink" x="0px" y="0px"
	 viewBox="0 0 595.28 841.89" style="enable-background:new 0 0 595.28 841.89;" xml:space="preserve">
<style type="text/css">
	.st0{fill:#FFFFFF;}
	.st1{fill:#447588;}
</style>
<rect x="105.99" y="462" width="400.68" height="126.3"/>
<g>
	<path class="st0" d="M372.72,555.9h-61.5v-61.5h61.5V555.9z M312.72,554.4h58.5v-58.5h-58.5V554.4z"/>
	<g>
		<path class="st0" d="M365.26,523.19c-0.59-0.42-1.31-0.58-2.03-0.45c-0.71,0.12-1.34,0.52-1.75,1.12l-2.42,3.45
			c-0.19,0.27-0.46,0.44-0.78,0.5c-0.32,0.06-0.64-0.02-0.91-0.2c-0.27-0.19-0.44-0.46-0.5-0.78c-0.06-0.32,0.02-0.64,0.2-0.91
			l1.83-2.61c0.46-0.66,0.64-1.46,0.5-2.25c-0.14-0.79-0.58-1.49-1.24-1.95c-0.66-0.46-1.46-0.64-2.25-0.5
			c-0.79,0.14-1.48,0.58-1.95,1.24l-5.12,7.32c-0.23,0.33-0.58,0.55-0.98,0.62c-0.4,0.07-0.8-0.02-1.13-0.25s-0.55-0.58-0.62-0.98
			s0.02-0.8,0.25-1.13l4.2-6c1.19-1.7,0.78-4.06-0.93-5.25c-0.83-0.58-1.83-0.8-2.82-0.62c-0.99,0.17-1.86,0.73-2.43,1.55
			l-8.43,12.04c-0.23,0.33-0.58,0.55-0.98,0.62c-0.4,0.07-0.8-0.02-1.13-0.25c-0.33-0.23-0.55-0.58-0.62-0.98
			c-0.07-0.4,0.02-0.8,0.25-1.13l6.97-9.96c0.81-1.15,1.12-2.55,0.87-3.94c-0.24-1.39-1.01-2.6-2.17-3.4
			c-2.38-1.67-5.68-1.09-7.34,1.29l-13.04,18.62l1.23,0.86l13.04-18.62c1.19-1.7,3.55-2.12,5.26-0.93c0.83,0.58,1.38,1.44,1.55,2.44
			c0.18,0.99-0.05,1.99-0.62,2.82l-6.97,9.96c-0.95,1.36-0.62,3.25,0.74,4.2c0.66,0.46,1.46,0.64,2.25,0.5
			c0.79-0.14,1.48-0.58,1.95-1.24l8.43-12.04c0.35-0.5,0.87-0.83,1.47-0.93c0.6-0.11,1.2,0.03,1.7,0.38
			c1.03,0.72,1.28,2.14,0.56,3.16l-4.2,5.99c-0.46,0.66-0.64,1.46-0.5,2.25c0.14,0.79,0.58,1.48,1.24,1.95
			c0.66,0.46,1.46,0.64,2.25,0.5c0.79-0.14,1.48-0.58,1.95-1.24l5.12-7.32c0.23-0.33,0.58-0.55,0.98-0.62
			c0.4-0.07,0.8,0.02,1.13,0.25c0.33,0.23,0.55,0.58,0.62,0.98c0.07,0.4-0.02,0.8-0.25,1.13l-1.83,2.61
			c-0.42,0.59-0.58,1.31-0.45,2.03s0.52,1.34,1.12,1.75c0.46,0.32,1,0.49,1.55,0.49c0.16,0,0.32-0.01,0.48-0.04
			c0.71-0.12,1.34-0.52,1.75-1.12l2.42-3.45c0.38-0.55,1.14-0.68,1.69-0.3L365.26,523.19z M364.4,527.81
			c-0.42,0-0.76,0.34-0.76,0.76s0.34,0.76,0.76,0.76s0.76-0.34,0.76-0.76S364.82,527.81,364.4,527.81z"/>
		<g>
			<path class="st0" d="M321.11,534.12h5.95v1.2h-4.53v3.67h4.18v1.18h-4.18v5h-1.43V534.12z"/>
			<path class="st0" d="M330.74,534.12h1.43v9.86h4.72v1.2h-6.15V534.12z"/>
			<path class="st0" d="M348.6,539.53c0,3.81-2.31,5.82-5.13,5.82c-2.92,0-4.97-2.26-4.97-5.61c0-3.51,2.18-5.81,5.13-5.81
				C346.65,533.94,348.6,536.25,348.6,539.53z M340.02,539.71c0,2.36,1.28,4.48,3.53,4.48c2.26,0,3.54-2.08,3.54-4.59
				c0-2.2-1.15-4.5-3.53-4.5C341.2,535.1,340.02,537.28,340.02,539.71z"/>
			<path class="st0" d="M353.24,545.17l-2.8-11.06h1.51l1.31,5.59c0.33,1.38,0.62,2.76,0.82,3.82h0.03c0.18-1.1,0.52-2.41,0.9-3.84
				l1.48-5.58h1.49l1.35,5.61c0.31,1.31,0.61,2.62,0.77,3.79h0.03c0.23-1.21,0.54-2.44,0.89-3.82l1.46-5.58h1.46l-3.13,11.06h-1.49
				l-1.39-5.76c-0.34-1.41-0.57-2.49-0.72-3.61h-0.03c-0.2,1.1-0.44,2.18-0.85,3.61l-1.57,5.76H353.24z"/>
		</g>
	</g>
</g>
<g>
	<path class="st0" d="M274.91,523.19c-0.59-0.42-1.31-0.58-2.03-0.45c-0.71,0.12-1.34,0.52-1.75,1.12l-2.42,3.45
		c-0.19,0.27-0.46,0.44-0.78,0.5c-0.32,0.06-0.64-0.02-0.91-0.2c-0.27-0.19-0.44-0.46-0.5-0.78c-0.06-0.32,0.02-0.64,0.2-0.91
		l1.83-2.61c0.46-0.66,0.64-1.46,0.5-2.25c-0.14-0.79-0.58-1.49-1.24-1.95c-0.66-0.46-1.46-0.64-2.25-0.5
		c-0.79,0.14-1.48,0.58-1.95,1.24l-5.12,7.32c-0.23,0.33-0.58,0.55-0.98,0.62c-0.4,0.07-0.8-0.02-1.13-0.25s-0.55-0.58-0.62-0.98
		s0.02-0.8,0.25-1.13l4.2-6c1.19-1.7,0.78-4.06-0.93-5.25c-0.83-0.58-1.83-0.8-2.82-0.62c-0.99,0.17-1.86,0.73-2.43,1.55
		l-8.43,12.04c-0.23,0.33-0.58,0.55-0.98,0.62c-0.4,0.07-0.8-0.02-1.13-0.25c-0.33-0.23-0.55-0.58-0.62-0.98
		c-0.07-0.4,0.02-0.8,0.25-1.13l6.97-9.96c0.81-1.15,1.12-2.55,0.87-3.94c-0.24-1.39-1.01-2.6-2.17-3.4
		c-2.38-1.67-5.68-1.09-7.34,1.29l-13.04,18.62l1.23,0.86l13.04-18.62c1.19-1.7,3.55-2.12,5.26-0.93c0.83,0.58,1.38,1.44,1.55,2.44
		c0.18,0.99-0.05,1.99-0.62,2.82l-6.97,9.96c-0.95,1.36-0.62,3.25,0.74,4.2c0.66,0.46,1.46,0.64,2.25,0.5
		c0.79-0.14,1.48-0.58,1.95-1.24l8.43-12.04c0.35-0.5,0.87-0.83,1.47-0.93c0.6-0.11,1.2,0.03,1.7,0.38
		c1.03,0.72,1.28,2.14,0.56,3.16l-4.2,5.99c-0.46,0.66-0.64,1.46-0.5,2.25c0.14,0.79,0.58,1.48,1.24,1.95
		c0.66,0.46,1.46,0.64,2.25,0.5c0.79-0.14,1.48-0.58,1.95-1.24l5.12-7.32c0.23-0.33,0.58-0.55,0.98-0.62
		c0.4-0.07,0.8,0.02,1.13,0.25c0.33,0.23,0.55,0.58,0.62,0.98c0.07,0.4-0.02,0.8-0.25,1.13l-1.83,2.61
		c-0.42,0.59-0.58,1.31-0.45,2.03s0.52,1.34,1.12,1.75c0.46,0.32,1,0.49,1.55,0.49c0.16,0,0.32-0.01,0.48-0.04
		c0.71-0.12,1.34-0.52,1.75-1.12l2.42-3.45c0.38-0.55,1.14-0.68,1.69-0.3L274.91,523.19z M274.05,527.81
		c-0.42,0-0.76,0.34-0.76,0.76s0.34,0.76,0.76,0.76s0.76-0.34,0.76-0.76S274.46,527.81,274.05,527.81z"/>
	<g>
		<path class="st0" d="M230.75,534.12h5.95v1.2h-4.53v3.67h4.18v1.18h-4.18v5h-1.43V534.12z"/>
		<path class="st0" d="M240.38,534.12h1.43v9.86h4.72v1.2h-6.15V534.12z"/>
		<path class="st0" d="M258.24,539.53c0,3.81-2.31,5.82-5.13,5.82c-2.92,0-4.97-2.26-4.97-5.61c0-3.51,2.18-5.81,5.13-5.81
			C256.29,533.94,258.24,536.25,258.24,539.53z M249.66,539.71c0,2.36,1.28,4.48,3.53,4.48c2.26,0,3.54-2.08,3.54-4.59
			c0-2.2-1.15-4.5-3.53-4.5C250.84,535.1,249.66,537.28,249.66,539.71z"/>
		<path class="st0" d="M262.88,545.17l-2.8-11.06h1.51l1.31,5.59c0.33,1.38,0.62,2.76,0.82,3.82h0.03c0.18-1.1,0.52-2.41,0.9-3.84
			l1.48-5.58h1.49l1.35,5.61c0.31,1.31,0.61,2.62,0.77,3.79h0.03c0.23-1.21,0.54-2.44,0.89-3.82l1.46-5.58h1.46l-3.13,11.06h-1.49
			l-1.39-5.76c-0.34-1.41-0.57-2.49-0.72-3.61h-0.03c-0.2,1.1-0.44,2.18-0.85,3.61l-1.57,5.76H262.88z"/>
	</g>
</g>
<path class="st0" d="M192.52,523.19c-0.59-0.42-1.31-0.58-2.03-0.45c-0.71,0.12-1.34,0.52-1.75,1.12l-2.42,3.45
	c-0.19,0.27-0.46,0.44-0.78,0.5c-0.32,0.06-0.64-0.02-0.91-0.2c-0.27-0.19-0.44-0.46-0.5-0.78c-0.06-0.32,0.02-0.64,0.2-0.91
	l1.83-2.61c0.46-0.66,0.64-1.46,0.5-2.25c-0.14-0.79-0.58-1.49-1.24-1.95c-0.66-0.46-1.46-0.64-2.25-0.5
	c-0.79,0.14-1.48,0.58-1.95,1.24l-5.12,7.32c-0.23,0.33-0.58,0.55-0.98,0.62c-0.4,0.07-0.8-0.02-1.13-0.25s-0.55-0.58-0.62-0.98
	s0.02-0.8,0.25-1.13l4.2-6c1.19-1.7,0.78-4.06-0.93-5.25c-0.83-0.58-1.83-0.8-2.82-0.62c-0.99,0.17-1.86,0.73-2.43,1.55l-8.43,12.04
	c-0.23,0.33-0.58,0.55-0.98,0.62c-0.4,0.07-0.8-0.02-1.13-0.25c-0.33-0.23-0.55-0.58-0.62-0.98c-0.07-0.4,0.02-0.8,0.25-1.13
	l6.97-9.96c0.81-1.15,1.12-2.55,0.87-3.94c-0.24-1.39-1.01-2.6-2.17-3.4c-2.38-1.67-5.68-1.09-7.34,1.29l-13.04,18.62l1.23,0.86
	l13.04-18.62c1.19-1.7,3.55-2.12,5.26-0.93c0.83,0.58,1.38,1.44,1.55,2.44c0.18,0.99-0.05,1.99-0.62,2.82l-6.97,9.96
	c-0.95,1.36-0.62,3.25,0.74,4.2c0.66,0.46,1.46,0.64,2.25,0.5c0.79-0.14,1.48-0.58,1.95-1.24l8.43-12.04
	c0.35-0.5,0.87-0.83,1.47-0.93c0.6-0.11,1.2,0.03,1.7,0.38c1.03,0.72,1.28,2.14,0.56,3.16l-4.2,5.99c-0.46,0.66-0.64,1.46-0.5,2.25
	c0.14,0.79,0.58,1.48,1.24,1.95c0.66,0.46,1.46,0.64,2.25,0.5c0.79-0.14,1.48-0.58,1.95-1.24l5.12-7.32
	c0.23-0.33,0.58-0.55,0.98-0.62c0.4-0.07,0.8,0.02,1.13,0.25c0.33,0.23,0.55,0.58,0.62,0.98c0.07,0.4-0.02,0.8-0.25,1.13l-1.83,2.61
	c-0.42,0.59-0.58,1.31-0.45,2.03s0.52,1.34,1.12,1.75c0.46,0.32,1,0.49,1.55,0.49c0.16,0,0.32-0.01,0.48-0.04
	c0.71-0.12,1.34-0.52,1.75-1.12l2.42-3.45c0.38-0.55,1.14-0.68,1.69-0.3L192.52,523.19z M191.66,527.81c-0.42,0-0.76,0.34-0.76,0.76
	s0.34,0.76,0.76,0.76s0.76-0.34,0.76-0.76S192.08,527.81,191.66,527.81z"/>
<g>
	<path class="st0" d="M462.77,527.28c-0.59-0.42-1.31-0.58-2.03-0.45c-0.71,0.12-1.34,0.52-1.75,1.12l-2.42,3.45
		c-0.19,0.27-0.46,0.44-0.78,0.5c-0.32,0.06-0.64-0.02-0.91-0.2c-0.27-0.19-0.44-0.46-0.5-0.78c-0.06-0.32,0.02-0.64,0.2-0.91
		l1.83-2.61c0.46-0.66,0.64-1.46,0.5-2.25c-0.14-0.79-0.58-1.49-1.24-1.95c-0.66-0.46-1.46-0.64-2.25-0.5
		c-0.79,0.14-1.48,0.58-1.95,1.24l-5.12,7.32c-0.23,0.33-0.58,0.55-0.98,0.62c-0.4,0.07-0.8-0.02-1.13-0.25s-0.55-0.58-0.62-0.98
		s0.02-0.8,0.25-1.13l4.2-6c1.19-1.7,0.78-4.06-0.93-5.25c-0.83-0.58-1.83-0.8-2.82-0.62c-0.99,0.17-1.86,0.73-2.43,1.55
		l-8.43,12.04c-0.23,0.33-0.58,0.55-0.98,0.62c-0.4,0.07-0.8-0.02-1.13-0.25c-0.33-0.23-0.55-0.58-0.62-0.98
		c-0.07-0.4,0.02-0.8,0.25-1.13l6.97-9.96c0.81-1.15,1.12-2.55,0.87-3.94c-0.24-1.39-1.01-2.6-2.17-3.4
		c-2.38-1.67-5.68-1.09-7.34,1.29l-13.04,18.62l1.23,0.86l13.04-18.62c1.19-1.7,3.55-2.12,5.26-0.93c0.83,0.58,1.38,1.44,1.55,2.44
		c0.18,0.99-0.05,1.99-0.62,2.82l-6.97,9.96c-0.95,1.36-0.62,3.25,0.74,4.2c0.66,0.46,1.46,0.64,2.25,0.5
		c0.79-0.14,1.48-0.58,1.95-1.24l8.43-12.04c0.35-0.5,0.87-0.83,1.47-0.93c0.6-0.11,1.2,0.03,1.7,0.38
		c1.03,0.72,1.28,2.14,0.56,3.16l-4.2,5.99c-0.46,0.66-0.64,1.46-0.5,2.25c0.14,0.79,0.58,1.48,1.24,1.95
		c0.66,0.46,1.46,0.64,2.25,0.5c0.79-0.14,1.48-0.58,1.95-1.24l5.12-7.32c0.23-0.33,0.58-0.55,0.98-0.62
		c0.4-0.07,0.8,0.02,1.13,0.25c0.33,0.23,0.55,0.58,0.62,0.98c0.07,0.4-0.02,0.8-0.25,1.13l-1.83,2.61
		c-0.42,0.59-0.58,1.31-0.45,2.03s0.52,1.34,1.12,1.75c0.46,0.32,1,0.49,1.55,0.49c0.16,0,0.32-0.01,0.48-0.04
		c0.71-0.12,1.34-0.52,1.75-1.12l2.42-3.45c0.38-0.55,1.14-0.68,1.69-0.3L462.77,527.28z M461.91,531.9c-0.42,0-0.76,0.34-0.76,0.76
		s0.34,0.76,0.76,0.76s0.76-0.34,0.76-0.76S462.33,531.9,461.91,531.9z"/>
	<path class="st0" d="M439.35,555.9c-16.96,0-30.75-13.79-30.75-30.75s13.79-30.75,30.75-30.75c16.96,0,30.75,13.79,30.75,30.75
		S456.31,555.9,439.35,555.9z M439.35,495.9c-16.13,0-29.25,13.12-29.25,29.25s13.12,29.25,29.25,29.25
		c16.13,0,29.25-13.12,29.25-29.25S455.48,495.9,439.35,495.9z"/>
</g>
<g>
	<path d="M372.72,429.6h-61.5v-61.5h61.5V429.6z M312.72,428.1h58.5v-58.5h-58.5V428.1z"/>
	<g>
		<path d="M365.26,396.89c-0.59-0.42-1.31-0.58-2.03-0.45c-0.71,0.12-1.34,0.52-1.75,1.12l-2.42,3.45c-0.19,0.27-0.46,0.44-0.78,0.5
			c-0.32,0.06-0.64-0.02-0.91-0.2c-0.27-0.19-0.44-0.46-0.5-0.78c-0.06-0.32,0.02-0.64,0.2-0.91l1.83-2.61
			c0.46-0.66,0.64-1.46,0.5-2.25c-0.14-0.79-0.58-1.49-1.24-1.95c-0.66-0.46-1.46-0.64-2.25-0.5c-0.79,0.14-1.48,0.58-1.95,1.24
			l-5.12,7.32c-0.23,0.33-0.58,0.55-0.98,0.62c-0.4,0.07-0.8-0.02-1.13-0.25s-0.55-0.58-0.62-0.98s0.02-0.8,0.25-1.13l4.2-6
			c1.19-1.7,0.78-4.06-0.93-5.25c-0.83-0.58-1.83-0.8-2.82-0.62c-0.99,0.17-1.86,0.73-2.43,1.55l-8.43,12.04
			c-0.23,0.33-0.58,0.55-0.98,0.62c-0.4,0.07-0.8-0.02-1.13-0.25c-0.33-0.23-0.55-0.58-0.62-0.98c-0.07-0.4,0.02-0.8,0.25-1.13
			l6.97-9.96c0.81-1.15,1.12-2.55,0.87-3.94c-0.24-1.39-1.01-2.6-2.17-3.4c-2.38-1.67-5.68-1.09-7.34,1.29l-13.04,18.62l1.23,0.86
			l13.04-18.62c1.19-1.7,3.55-2.12,5.26-0.93c0.83,0.58,1.38,1.44,1.55,2.44c0.18,0.99-0.05,1.99-0.62,2.82l-6.97,9.96
			c-0.95,1.36-0.62,3.25,0.74,4.2c0.66,0.46,1.46,0.64,2.25,0.5c0.79-0.14,1.48-0.58,1.95-1.24l8.43-12.04
			c0.35-0.5,0.87-0.83,1.47-0.93c0.6-0.11,1.2,0.03,1.7,0.38c1.03,0.72,1.28,2.14,0.56,3.16l-4.2,5.99
			c-0.46,0.66-0.64,1.46-0.5,2.25c0.14,0.79,0.58,1.48,1.24,1.95c0.66,0.46,1.46,0.64,2.25,0.5c0.79-0.14,1.48-0.58,1.95-1.24
			l5.12-7.32c0.23-0.33,0.58-0.55,0.98-0.62c0.4-0.07,0.8,0.02,1.13,0.25c0.33,0.23,0.55,0.58,0.62,0.98
			c0.07,0.4-0.02,0.8-0.25,1.13l-1.83,2.61c-0.42,0.59-0.58,1.31-0.45,2.03s0.52,1.34,1.12,1.75c0.46,0.32,1,0.49,1.55,0.49
			c0.16,0,0.32-0.01,0.48-0.04c0.71-0.12,1.34-0.52,1.75-1.12l2.42-3.45c0.38-0.55,1.14-0.68,1.69-0.3L365.26,396.89z M364.4,401.51
			c-0.42,0-0.76,0.34-0.76,0.76s0.34,0.76,0.76,0.76s0.76-0.34,0.76-0.76S364.82,401.51,364.4,401.51z"/>
		<g>
			<path d="M321.11,407.82h5.95v1.2h-4.53v3.67h4.18v1.18h-4.18v5h-1.43V407.82z"/>
			<path d="M330.74,407.82h1.43v9.86h4.72v1.2h-6.15V407.82z"/>
			<path d="M348.6,413.23c0,3.81-2.31,5.82-5.13,5.82c-2.92,0-4.97-2.26-4.97-5.61c0-3.51,2.18-5.81,5.13-5.81
				C346.65,407.64,348.6,409.95,348.6,413.23z M340.02,413.41c0,2.36,1.28,4.48,3.53,4.48c2.26,0,3.54-2.08,3.54-4.59
				c0-2.2-1.15-4.49-3.53-4.49C341.2,408.8,340.02,410.99,340.02,413.41z"/>
			<path d="M353.24,418.87l-2.8-11.06h1.51l1.31,5.59c0.33,1.38,0.62,2.76,0.82,3.82h0.03c0.18-1.1,0.52-2.41,0.9-3.84l1.48-5.58
				h1.49l1.35,5.61c0.31,1.31,0.61,2.62,0.77,3.79h0.03c0.23-1.21,0.54-2.44,0.89-3.82l1.46-5.58h1.46l-3.13,11.06h-1.49l-1.39-5.76
				c-0.34-1.41-0.57-2.49-0.72-3.61h-0.03c-0.2,1.1-0.44,2.18-0.85,3.61l-1.57,5.76H353.24z"/>
		</g>
	</g>
</g>
<g>
	<path d="M337.08,198.51h-61.5v-61.5h61.5V198.51z M277.08,197.01h58.5v-58.5h-58.5V197.01z"/>
	<g>
		<path d="M329.62,165.81c-0.59-0.42-1.31-0.58-2.03-0.45c-0.71,0.12-1.34,0.52-1.75,1.12l-2.42,3.45c-0.19,0.27-0.46,0.44-0.78,0.5
			c-0.32,0.06-0.64-0.02-0.91-0.2c-0.27-0.19-0.44-0.46-0.5-0.78c-0.06-0.32,0.02-0.64,0.2-0.91l1.83-2.61
			c0.46-0.66,0.64-1.46,0.5-2.25c-0.14-0.79-0.58-1.49-1.24-1.95c-0.66-0.46-1.46-0.64-2.25-0.5c-0.79,0.14-1.48,0.58-1.95,1.24
			l-5.12,7.32c-0.23,0.33-0.58,0.55-0.98,0.62c-0.4,0.07-0.8-0.02-1.13-0.25s-0.55-0.58-0.62-0.98s0.02-0.8,0.25-1.13l4.2-6
			c1.19-1.7,0.78-4.06-0.93-5.25c-0.83-0.58-1.83-0.8-2.82-0.62c-0.99,0.17-1.86,0.73-2.43,1.55l-8.43,12.04
			c-0.23,0.33-0.58,0.55-0.98,0.62c-0.4,0.07-0.8-0.02-1.13-0.25c-0.33-0.23-0.55-0.58-0.62-0.98c-0.07-0.4,0.02-0.8,0.25-1.13
			l6.97-9.96c0.81-1.15,1.12-2.55,0.87-3.94c-0.24-1.39-1.01-2.6-2.17-3.4c-2.38-1.67-5.68-1.09-7.34,1.29l-13.04,18.62l1.23,0.86
			l13.04-18.62c1.19-1.7,3.55-2.12,5.26-0.93c0.83,0.58,1.38,1.44,1.55,2.44c0.18,0.99-0.05,1.99-0.62,2.82l-6.97,9.96
			c-0.95,1.36-0.62,3.25,0.74,4.2c0.66,0.46,1.46,0.64,2.25,0.5c0.79-0.14,1.48-0.58,1.95-1.24l8.43-12.04
			c0.35-0.5,0.87-0.83,1.47-0.93c0.6-0.11,1.2,0.03,1.7,0.38c1.03,0.72,1.28,2.14,0.56,3.16l-4.2,5.99
			c-0.46,0.66-0.64,1.46-0.5,2.25c0.14,0.79,0.58,1.48,1.24,1.95c0.66,0.46,1.46,0.64,2.25,0.5c0.79-0.14,1.48-0.58,1.95-1.24
			l5.12-7.32c0.23-0.33,0.58-0.55,0.98-0.62c0.4-0.07,0.8,0.02,1.13,0.25c0.33,0.23,0.55,0.58,0.62,0.98
			c0.07,0.4-0.02,0.8-0.25,1.13l-1.83,2.61c-0.42,0.59-0.58,1.31-0.45,2.03s0.52,1.34,1.12,1.75c0.46,0.32,1,0.49,1.55,0.49
			c0.16,0,0.32-0.01,0.48-0.04c0.71-0.12,1.34-0.52,1.75-1.12l2.42-3.45c0.38-0.55,1.14-0.68,1.69-0.3L329.62,165.81z
			 M328.76,170.43c-0.42,0-0.76,0.34-0.76,0.76s0.34,0.76,0.76,0.76s0.76-0.34,0.76-0.76S329.18,170.43,328.76,170.43z"/>
		<g>
			<path d="M285.47,176.73h5.95v1.2h-4.53v3.67h4.18v1.18h-4.18v5h-1.43V176.73z"/>
			<path d="M295.1,176.73h1.43v9.86h4.72v1.2h-6.15V176.73z"/>
			<path d="M312.96,182.14c0,3.81-2.31,5.82-5.13,5.82c-2.92,0-4.97-2.26-4.97-5.61c0-3.51,2.18-5.81,5.13-5.81
				C311.01,176.55,312.96,178.86,312.96,182.14z M304.38,182.33c0,2.36,1.28,4.48,3.53,4.48c2.26,0,3.54-2.08,3.54-4.59
				c0-2.2-1.15-4.49-3.53-4.49C305.56,177.72,304.38,179.9,304.38,182.33z"/>
			<path d="M317.6,187.79l-2.8-11.06h1.51l1.31,5.59c0.33,1.38,0.62,2.76,0.82,3.82h0.03c0.18-1.1,0.52-2.41,0.9-3.84l1.48-5.58
				h1.49l1.35,5.61c0.31,1.31,0.61,2.62,0.77,3.79h0.03c0.23-1.21,0.54-2.44,0.89-3.82l1.46-5.58h1.46l-3.13,11.06h-1.49l-1.39-5.76
				c-0.34-1.41-0.57-2.49-0.72-3.61h-0.03c-0.2,1.1-0.44,2.18-0.85,3.61l-1.57,5.76H317.6z"/>
		</g>
	</g>
</g>
<g>
	<path d="M274.91,396.89c-0.59-0.42-1.31-0.58-2.03-0.45c-0.71,0.12-1.34,0.52-1.75,1.12l-2.42,3.45c-0.19,0.27-0.46,0.44-0.78,0.5
		c-0.32,0.06-0.64-0.02-0.91-0.2c-0.27-0.19-0.44-0.46-0.5-0.78c-0.06-0.32,0.02-0.64,0.2-0.91l1.83-2.61
		c0.46-0.66,0.64-1.46,0.5-2.25c-0.14-0.79-0.58-1.49-1.24-1.95c-0.66-0.46-1.46-0.64-2.25-0.5c-0.79,0.14-1.48,0.58-1.95,1.24
		l-5.12,7.32c-0.23,0.33-0.58,0.55-0.98,0.62c-0.4,0.07-0.8-0.02-1.13-0.25s-0.55-0.58-0.62-0.98s0.02-0.8,0.25-1.13l4.2-6
		c1.19-1.7,0.78-4.06-0.93-5.25c-0.83-0.58-1.83-0.8-2.82-0.62c-0.99,0.17-1.86,0.73-2.43,1.55l-8.43,12.04
		c-0.23,0.33-0.58,0.55-0.98,0.62c-0.4,0.07-0.8-0.02-1.13-0.25c-0.33-0.23-0.55-0.58-0.62-0.98c-0.07-0.4,0.02-0.8,0.25-1.13
		l6.97-9.96c0.81-1.15,1.12-2.55,0.87-3.94c-0.24-1.39-1.01-2.6-2.17-3.4c-2.38-1.67-5.68-1.09-7.34,1.29l-13.04,18.62l1.23,0.86
		l13.04-18.62c1.19-1.7,3.55-2.12,5.26-0.93c0.83,0.58,1.38,1.44,1.55,2.44c0.18,0.99-0.05,1.99-0.62,2.82l-6.97,9.96
		c-0.95,1.36-0.62,3.25,0.74,4.2c0.66,0.46,1.46,0.64,2.25,0.5c0.79-0.14,1.48-0.58,1.95-1.24l8.43-12.04
		c0.35-0.5,0.87-0.83,1.47-0.93c0.6-0.11,1.2,0.03,1.7,0.38c1.03,0.72,1.28,2.14,0.56,3.16l-4.2,5.99c-0.46,0.66-0.64,1.46-0.5,2.25
		c0.14,0.79,0.58,1.48,1.24,1.95c0.66,0.46,1.46,0.64,2.25,0.5c0.79-0.14,1.48-0.58,1.95-1.24l5.12-7.32
		c0.23-0.33,0.58-0.55,0.98-0.62c0.4-0.07,0.8,0.02,1.13,0.25c0.33,0.23,0.55,0.58,0.62,0.98c0.07,0.4-0.02,0.8-0.25,1.13
		l-1.83,2.61c-0.42,0.59-0.58,1.31-0.45,2.03s0.52,1.34,1.12,1.75c0.46,0.32,1,0.49,1.55,0.49c0.16,0,0.32-0.01,0.48-0.04
		c0.71-0.12,1.34-0.52,1.75-1.12l2.42-3.45c0.38-0.55,1.14-0.68,1.69-0.3L274.91,396.89z M274.05,401.51
		c-0.42,0-0.76,0.34-0.76,0.76s0.34,0.76,0.76,0.76s0.76-0.34,0.76-0.76S274.46,401.51,274.05,401.51z"/>
	<g>
		<path d="M230.75,407.82h5.95v1.2h-4.53v3.67h4.18v1.18h-4.18v5h-1.43V407.82z"/>
		<path d="M240.38,407.82h1.43v9.86h4.72v1.2h-6.15V407.82z"/>
		<path d="M258.24,413.23c0,3.81-2.31,5.82-5.13,5.82c-2.92,0-4.97-2.26-4.97-5.61c0-3.51,2.18-5.81,5.13-5.81
			C256.29,407.64,258.24,409.95,258.24,413.23z M249.66,413.41c0,2.36,1.28,4.48,3.53,4.48c2.26,0,3.54-2.08,3.54-4.59
			c0-2.2-1.15-4.49-3.53-4.49C250.84,408.8,249.66,410.99,249.66,413.41z"/>
		<path d="M262.88,418.87l-2.8-11.06h1.51l1.31,5.59c0.33,1.38,0.62,2.76,0.82,3.82h0.03c0.18-1.1,0.52-2.41,0.9-3.84l1.48-5.58
			h1.49l1.35,5.61c0.31,1.31,0.61,2.62,0.77,3.79h0.03c0.23-1.21,0.54-2.44,0.89-3.82l1.46-5.58h1.46l-3.13,11.06h-1.49l-1.39-5.76
			c-0.34-1.41-0.57-2.49-0.72-3.61h-0.03c-0.2,1.1-0.44,2.18-0.85,3.61l-1.57,5.76H262.88z"/>
	</g>
</g>
<path d="M192.52,396.89c-0.59-0.42-1.31-0.58-2.03-0.45c-0.71,0.12-1.34,0.52-1.75,1.12l-2.42,3.45c-0.19,0.27-0.46,0.44-0.78,0.5
	c-0.32,0.06-0.64-0.02-0.91-0.2c-0.27-0.19-0.44-0.46-0.5-0.78c-0.06-0.32,0.02-0.64,0.2-0.91l1.83-2.61
	c0.46-0.66,0.64-1.46,0.5-2.25c-0.14-0.79-0.58-1.49-1.24-1.95c-0.66-0.46-1.46-0.64-2.25-0.5c-0.79,0.14-1.48,0.58-1.95,1.24
	l-5.12,7.32c-0.23,0.33-0.58,0.55-0.98,0.62c-0.4,0.07-0.8-0.02-1.13-0.25s-0.55-0.58-0.62-0.98s0.02-0.8,0.25-1.13l4.2-6
	c1.19-1.7,0.78-4.06-0.93-5.25c-0.83-0.58-1.83-0.8-2.82-0.62c-0.99,0.17-1.86,0.73-2.43,1.55l-8.43,12.04
	c-0.23,0.33-0.58,0.55-0.98,0.62c-0.4,0.07-0.8-0.02-1.13-0.25c-0.33-0.23-0.55-0.58-0.62-0.98c-0.07-0.4,0.02-0.8,0.25-1.13
	l6.97-9.96c0.81-1.15,1.12-2.55,0.87-3.94c-0.24-1.39-1.01-2.6-2.17-3.4c-2.38-1.67-5.68-1.09-7.34,1.29l-13.04,18.62l1.23,0.86
	l13.04-18.62c1.19-1.7,3.55-2.12,5.26-0.93c0.83,0.58,1.38,1.44,1.55,2.44c0.18,0.99-0.05,1.99-0.62,2.82l-6.97,9.96
	c-0.95,1.36-0.62,3.25,0.74,4.2c0.66,0.46,1.46,0.64,2.25,0.5c0.79-0.14,1.48-0.58,1.95-1.24l8.43-12.04
	c0.35-0.5,0.87-0.83,1.47-0.93c0.6-0.11,1.2,0.03,1.7,0.38c1.03,0.72,1.28,2.14,0.56,3.16l-4.2,5.99c-0.46,0.66-0.64,1.46-0.5,2.25
	c0.14,0.79,0.58,1.48,1.24,1.95c0.66,0.46,1.46,0.64,2.25,0.5c0.79-0.14,1.48-0.58,1.95-1.24l5.12-7.32
	c0.23-0.33,0.58-0.55,0.98-0.62c0.4-0.07,0.8,0.02,1.13,0.25c0.33,0.23,0.55,0.58,0.62,0.98c0.07,0.4-0.02,0.8-0.25,1.13l-1.83,2.61
	c-0.42,0.59-0.58,1.31-0.45,2.03s0.52,1.34,1.12,1.75c0.46,0.32,1,0.49,1.55,0.49c0.16,0,0.32-0.01,0.48-0.04
	c0.71-0.12,1.34-0.52,1.75-1.12l2.42-3.45c0.38-0.55,1.14-0.68,1.69-0.3L192.52,396.89z M191.66,401.51c-0.42,0-0.76,0.34-0.76,0.76
	s0.34,0.76,0.76,0.76s0.76-0.34,0.76-0.76S192.08,401.51,191.66,401.51z"/>
<g>
	<path d="M462.77,400.98c-0.59-0.42-1.31-0.58-2.03-0.45c-0.71,0.12-1.34,0.52-1.75,1.12l-2.42,3.45c-0.19,0.27-0.46,0.44-0.78,0.5
		c-0.32,0.06-0.64-0.02-0.91-0.2c-0.27-0.19-0.44-0.46-0.5-0.78c-0.06-0.32,0.02-0.64,0.2-0.91l1.83-2.61
		c0.46-0.66,0.64-1.46,0.5-2.25c-0.14-0.79-0.58-1.49-1.24-1.95c-0.66-0.46-1.46-0.64-2.25-0.5c-0.79,0.14-1.48,0.58-1.95,1.24
		l-5.12,7.32c-0.23,0.33-0.58,0.55-0.98,0.62c-0.4,0.07-0.8-0.02-1.13-0.25s-0.55-0.58-0.62-0.98s0.02-0.8,0.25-1.13l4.2-6
		c1.19-1.7,0.78-4.06-0.93-5.25c-0.83-0.58-1.83-0.8-2.82-0.62c-0.99,0.17-1.86,0.73-2.43,1.55l-8.43,12.04
		c-0.23,0.33-0.58,0.55-0.98,0.62c-0.4,0.07-0.8-0.02-1.13-0.25c-0.33-0.23-0.55-0.58-0.62-0.98c-0.07-0.4,0.02-0.8,0.25-1.13
		l6.97-9.96c0.81-1.15,1.12-2.55,0.87-3.94c-0.24-1.39-1.01-2.6-2.17-3.4c-2.38-1.67-5.68-1.09-7.34,1.29l-13.04,18.62l1.23,0.86
		l13.04-18.62c1.19-1.7,3.55-2.12,5.26-0.93c0.83,0.58,1.38,1.44,1.55,2.44c0.18,0.99-0.05,1.99-0.62,2.82l-6.97,9.96
		c-0.95,1.36-0.62,3.25,0.74,4.2c0.66,0.46,1.46,0.64,2.25,0.5c0.79-0.14,1.48-0.58,1.95-1.24l8.43-12.04
		c0.35-0.5,0.87-0.83,1.47-0.93c0.6-0.11,1.2,0.03,1.7,0.38c1.03,0.72,1.28,2.14,0.56,3.16l-4.2,5.99c-0.46,0.66-0.64,1.46-0.5,2.25
		c0.14,0.79,0.58,1.48,1.24,1.95c0.66,0.46,1.46,0.64,2.25,0.5c0.79-0.14,1.48-0.58,1.95-1.24l5.12-7.32
		c0.23-0.33,0.58-0.55,0.98-0.62c0.4-0.07,0.8,0.02,1.13,0.25c0.33,0.23,0.55,0.58,0.62,0.98c0.07,0.4-0.02,0.8-0.25,1.13
		l-1.83,2.61c-0.42,0.59-0.58,1.31-0.45,2.03s0.52,1.34,1.12,1.75c0.46,0.32,1,0.49,1.55,0.49c0.16,0,0.32-0.01,0.48-0.04
		c0.71-0.12,1.34-0.52,1.75-1.12l2.42-3.45c0.38-0.55,1.14-0.68,1.69-0.3L462.77,400.98z M461.91,405.6c-0.42,0-0.76,0.34-0.76,0.76
		s0.34,0.76,0.76,0.76s0.76-0.34,0.76-0.76S462.33,405.6,461.91,405.6z"/>
	<path d="M439.35,429.6c-16.96,0-30.75-13.79-30.75-30.75s13.79-30.75,30.75-30.75c16.96,0,30.75,13.79,30.75,30.75
		S456.31,429.6,439.35,429.6z M439.35,369.6c-16.13,0-29.25,13.12-29.25,29.25s13.12,29.25,29.25,29.25
		c16.13,0,29.25-13.12,29.25-29.25S455.48,369.6,439.35,369.6z"/>
</g>
<g>
	<path d="M411.6,711.45h58.5v-58.5h-58.5V711.45z"/>
	<g>
		<path class="st0" d="M464.14,680.24c-0.59-0.42-1.31-0.58-2.03-0.45c-0.71,0.12-1.34,0.52-1.75,1.12l-2.42,3.45
			c-0.19,0.27-0.46,0.44-0.78,0.5c-0.32,0.06-0.64-0.02-0.91-0.2c-0.27-0.19-0.44-0.46-0.5-0.78c-0.06-0.32,0.02-0.64,0.2-0.91
			l1.83-2.61c0.46-0.66,0.64-1.46,0.5-2.25c-0.14-0.79-0.58-1.49-1.24-1.95c-0.66-0.46-1.46-0.64-2.25-0.5
			c-0.79,0.14-1.48,0.58-1.95,1.24l-5.12,7.32c-0.23,0.33-0.58,0.55-0.98,0.62c-0.4,0.07-0.8-0.02-1.13-0.25s-0.55-0.58-0.62-0.98
			s0.02-0.8,0.25-1.13l4.2-6c1.19-1.7,0.78-4.06-0.93-5.25c-0.83-0.58-1.83-0.8-2.82-0.62c-0.99,0.17-1.86,0.73-2.43,1.55
			l-8.43,12.04c-0.23,0.33-0.58,0.55-0.98,0.62c-0.4,0.07-0.8-0.02-1.13-0.25c-0.33-0.23-0.55-0.58-0.62-0.98
			c-0.07-0.4,0.02-0.8,0.25-1.13l6.97-9.96c0.81-1.15,1.12-2.55,0.87-3.94c-0.24-1.39-1.01-2.6-2.17-3.4
			c-2.38-1.67-5.68-1.09-7.34,1.29l-13.04,18.62l1.23,0.86l13.04-18.62c1.19-1.7,3.55-2.12,5.26-0.93c0.83,0.58,1.38,1.44,1.55,2.44
			c0.18,0.99-0.05,1.99-0.62,2.82l-6.97,9.96c-0.95,1.36-0.62,3.25,0.74,4.2c0.66,0.46,1.46,0.64,2.25,0.5
			c0.79-0.14,1.48-0.58,1.95-1.24l8.43-12.04c0.35-0.5,0.87-0.83,1.47-0.93c0.6-0.11,1.2,0.03,1.7,0.38
			c1.03,0.72,1.28,2.14,0.56,3.16l-4.2,5.99c-0.46,0.66-0.64,1.46-0.5,2.25c0.14,0.79,0.58,1.48,1.24,1.95
			c0.66,0.46,1.46,0.64,2.25,0.5c0.79-0.14,1.48-0.58,1.95-1.24l5.12-7.32c0.23-0.33,0.58-0.55,0.98-0.62
			c0.4-0.07,0.8,0.02,1.13,0.25c0.33,0.23,0.55,0.58,0.62,0.98c0.07,0.4-0.02,0.8-0.25,1.13l-1.83,2.61
			c-0.42,0.59-0.58,1.31-0.45,2.03s0.52,1.34,1.12,1.75c0.46,0.32,1,0.49,1.55,0.49c0.16,0,0.32-0.01,0.48-0.04
			c0.71-0.12,1.34-0.52,1.75-1.12l2.42-3.45c0.38-0.55,1.14-0.68,1.69-0.3L464.14,680.24z M463.28,684.87
			c-0.42,0-0.76,0.34-0.76,0.76s0.34,0.76,0.76,0.76s0.76-0.34,0.76-0.76S463.7,684.87,463.28,684.87z"/>
		<g>
			<path class="st0" d="M419.99,691.17h5.95v1.2h-4.53v3.67h4.18v1.18h-4.18v5h-1.43V691.17z"/>
			<path class="st0" d="M429.61,691.17h1.43v9.86h4.72v1.2h-6.15V691.17z"/>
			<path class="st0" d="M447.48,696.58c0,3.81-2.31,5.82-5.13,5.82c-2.92,0-4.97-2.26-4.97-5.61c0-3.51,2.18-5.81,5.13-5.81
				C445.52,690.99,447.48,693.3,447.48,696.58z M438.9,696.76c0,2.36,1.28,4.48,3.53,4.48c2.26,0,3.54-2.08,3.54-4.59
				c0-2.2-1.15-4.5-3.53-4.5C440.08,692.15,438.9,694.34,438.9,696.76z"/>
			<path class="st0" d="M452.12,702.23l-2.8-11.06h1.51l1.31,5.59c0.33,1.38,0.62,2.76,0.82,3.82h0.03c0.18-1.1,0.52-2.41,0.9-3.84
				l1.48-5.58h1.49l1.35,5.61c0.31,1.31,0.61,2.62,0.77,3.79H459c0.23-1.21,0.54-2.44,0.89-3.82l1.46-5.58h1.46l-3.13,11.06h-1.49
				l-1.39-5.76c-0.34-1.41-0.57-2.49-0.72-3.61h-0.03c-0.2,1.1-0.44,2.18-0.85,3.61l-1.57,5.76H452.12z"/>
		</g>
	</g>
</g>
<g>
	<path d="M169.27,652.95c-16.13,0-29.25,13.12-29.25,29.25s13.12,29.25,29.25,29.25c16.13,0,29.25-13.12,29.25-29.25
		S185.4,652.95,169.27,652.95z"/>
	<path class="st0" d="M192.69,684.33c-0.59-0.42-1.31-0.58-2.03-0.45c-0.71,0.12-1.34,0.52-1.75,1.12l-2.42,3.45
		c-0.19,0.27-0.46,0.44-0.78,0.5c-0.32,0.06-0.64-0.02-0.91-0.2c-0.27-0.19-0.44-0.46-0.5-0.78c-0.06-0.32,0.02-0.64,0.2-0.91
		l1.83-2.61c0.46-0.66,0.64-1.46,0.5-2.25c-0.14-0.79-0.58-1.49-1.24-1.95c-0.66-0.46-1.46-0.64-2.25-0.5
		c-0.79,0.14-1.48,0.58-1.95,1.24l-5.12,7.32c-0.23,0.33-0.58,0.55-0.98,0.62c-0.4,0.07-0.8-0.02-1.13-0.25s-0.55-0.58-0.62-0.98
		s0.02-0.8,0.25-1.13l4.2-6c1.19-1.7,0.78-4.06-0.93-5.25c-0.83-0.58-1.83-0.8-2.82-0.62c-0.99,0.17-1.86,0.73-2.43,1.55
		l-8.43,12.04c-0.23,0.33-0.58,0.55-0.98,0.62c-0.4,0.07-0.8-0.02-1.13-0.25c-0.33-0.23-0.55-0.58-0.62-0.98
		c-0.07-0.4,0.02-0.8,0.25-1.13l6.97-9.96c0.81-1.15,1.12-2.55,0.87-3.94c-0.24-1.39-1.01-2.6-2.17-3.4
		c-2.38-1.67-5.68-1.09-7.34,1.29l-13.04,18.62l1.23,0.86l13.04-18.62c1.19-1.7,3.55-2.12,5.26-0.93c0.83,0.58,1.38,1.44,1.55,2.44
		c0.18,0.99-0.05,1.99-0.62,2.82l-6.97,9.96c-0.95,1.36-0.62,3.25,0.74,4.2c0.66,0.46,1.46,0.64,2.25,0.5
		c0.79-0.14,1.48-0.58,1.95-1.24l8.43-12.04c0.35-0.5,0.87-0.83,1.47-0.93c0.6-0.11,1.2,0.03,1.7,0.38
		c1.03,0.72,1.28,2.14,0.56,3.16l-4.2,5.99c-0.46,0.66-0.64,1.46-0.5,2.25c0.14,0.79,0.58,1.48,1.24,1.95
		c0.66,0.46,1.46,0.64,2.25,0.5c0.79-0.14,1.48-0.58,1.95-1.24l5.12-7.32c0.23-0.33,0.58-0.55,0.98-0.62
		c0.4-0.07,0.8,0.02,1.13,0.25c0.33,0.23,0.55,0.58,0.62,0.98c0.07,0.4-0.02,0.8-0.25,1.13l-1.83,2.61
		c-0.42,0.59-0.58,1.31-0.45,2.03s0.52,1.34,1.12,1.75c0.46,0.32,1,0.49,1.55,0.49c0.16,0,0.32-0.01,0.48-0.04
		c0.71-0.12,1.34-0.52,1.75-1.12l2.42-3.45c0.38-0.55,1.14-0.68,1.69-0.3L192.69,684.33z M191.83,688.95
		c-0.42,0-0.76,0.34-0.76,0.76s0.34,0.76,0.76,0.76s0.76-0.34,0.76-0.76S192.25,688.95,191.83,688.95z"/>
</g>
<g>
	<rect x="256.33" y="633.45" width="100" height="100"/>
	<g>
		<path class="st0" d="M337.08,714.2h-61.5v-61.5h61.5V714.2z M277.08,712.7h58.5v-58.5h-58.5V712.7z"/>
		<g>
			<path class="st0" d="M329.62,681.49c-0.59-0.42-1.31-0.58-2.03-0.45c-0.71,0.12-1.34,0.52-1.75,1.12l-2.42,3.45
				c-0.19,0.27-0.46,0.44-0.78,0.5c-0.32,0.06-0.64-0.02-0.91-0.2c-0.27-0.19-0.44-0.46-0.5-0.78c-0.06-0.32,0.02-0.64,0.2-0.91
				l1.83-2.61c0.46-0.66,0.64-1.46,0.5-2.25c-0.14-0.79-0.58-1.49-1.24-1.95c-0.66-0.46-1.46-0.64-2.25-0.5
				c-0.79,0.14-1.48,0.58-1.95,1.24l-5.12,7.32c-0.23,0.33-0.58,0.55-0.98,0.62c-0.4,0.07-0.8-0.02-1.13-0.25s-0.55-0.58-0.62-0.98
				s0.02-0.8,0.25-1.13l4.2-6c1.19-1.7,0.78-4.06-0.93-5.25c-0.83-0.58-1.83-0.8-2.82-0.62c-0.99,0.17-1.86,0.73-2.43,1.55
				l-8.43,12.04c-0.23,0.33-0.58,0.55-0.98,0.62c-0.4,0.07-0.8-0.02-1.13-0.25c-0.33-0.23-0.55-0.58-0.62-0.98
				c-0.07-0.4,0.02-0.8,0.25-1.13l6.97-9.96c0.81-1.15,1.12-2.55,0.87-3.94c-0.24-1.39-1.01-2.6-2.17-3.4
				c-2.38-1.67-5.68-1.09-7.34,1.29l-13.04,18.62l1.23,0.86l13.04-18.62c1.19-1.7,3.55-2.12,5.26-0.93
				c0.83,0.58,1.38,1.44,1.55,2.44c0.18,0.99-0.05,1.99-0.62,2.82l-6.97,9.96c-0.95,1.36-0.62,3.25,0.74,4.2
				c0.66,0.46,1.46,0.64,2.25,0.5c0.79-0.14,1.48-0.58,1.95-1.24l8.43-12.04c0.35-0.5,0.87-0.83,1.47-0.93
				c0.6-0.11,1.2,0.03,1.7,0.38c1.03,0.72,1.28,2.14,0.56,3.16l-4.2,5.99c-0.46,0.66-0.64,1.46-0.5,2.25
				c0.14,0.79,0.58,1.48,1.24,1.95c0.66,0.46,1.46,0.64,2.25,0.5c0.79-0.14,1.48-0.58,1.95-1.24l5.12-7.32
				c0.23-0.33,0.58-0.55,0.98-0.62c0.4-0.07,0.8,0.02,1.13,0.25c0.33,0.23,0.55,0.58,0.62,0.98c0.07,0.4-0.02,0.8-0.25,1.13
				l-1.83,2.61c-0.42,0.59-0.58,1.31-0.45,2.03s0.52,1.34,1.12,1.75c0.46,0.32,1,0.49,1.55,0.49c0.16,0,0.32-0.01,0.48-0.04
				c0.71-0.12,1.34-0.52,1.75-1.12l2.42-3.45c0.38-0.55,1.14-0.68,1.69-0.3L329.62,681.49z M328.76,686.11
				c-0.42,0-0.76,0.34-0.76,0.76s0.34,0.76,0.76,0.76s0.76-0.34,0.76-0.76S329.18,686.11,328.76,686.11z"/>
			<g>
				<path class="st0" d="M285.47,692.42h5.95v1.2h-4.53v3.67h4.18v1.18h-4.18v5h-1.43V692.42z"/>
				<path class="st0" d="M295.1,692.42h1.43v9.86h4.72v1.2h-6.15V692.42z"/>
				<path class="st0" d="M312.96,697.83c0,3.81-2.31,5.82-5.13,5.82c-2.92,0-4.97-2.26-4.97-5.61c0-3.51,2.18-5.81,5.13-5.81
					C311.01,692.24,312.96,694.55,312.96,697.83z M304.38,698.01c0,2.36,1.28,4.48,3.53,4.48c2.26,0,3.54-2.08,3.54-4.59
					c0-2.2-1.15-4.5-3.53-4.5C305.56,693.4,304.38,695.58,304.38,698.01z"/>
				<path class="st0" d="M317.6,703.47l-2.8-11.06h1.51l1.31,5.59c0.33,1.38,0.62,2.76,0.82,3.82h0.03c0.18-1.1,0.52-2.41,0.9-3.84
					l1.48-5.58h1.49l1.35,5.61c0.31,1.31,0.61,2.62,0.77,3.79h0.03c0.23-1.21,0.54-2.44,0.89-3.82l1.46-5.58h1.46l-3.13,11.06h-1.49
					l-1.39-5.76c-0.34-1.41-0.57-2.49-0.72-3.61h-0.03c-0.2,1.1-0.44,2.18-0.85,3.61l-1.57,5.76H317.6z"/>
			</g>
		</g>
	</g>
</g>
<rect x="720.8" y="462" class="st1" width="400.68" height="126.3"/>
<g>
	<path class="st0" d="M987.53,555.9h-61.5v-61.5h61.5V555.9z M927.53,554.4h58.5v-58.5h-58.5V554.4z"/>
	<g>
		<path class="st0" d="M980.07,523.19c-0.59-0.42-1.31-0.58-2.03-0.45c-0.71,0.12-1.34,0.52-1.75,1.12l-2.42,3.45
			c-0.19,0.27-0.46,0.44-0.78,0.5c-0.32,0.06-0.64-0.02-0.91-0.2c-0.27-0.19-0.44-0.46-0.5-0.78c-0.06-0.32,0.02-0.64,0.2-0.91
			l1.83-2.61c0.46-0.66,0.64-1.46,0.5-2.25c-0.14-0.79-0.58-1.49-1.24-1.95c-0.66-0.46-1.46-0.64-2.25-0.5
			c-0.79,0.14-1.48,0.58-1.95,1.24l-5.12,7.32c-0.23,0.33-0.58,0.55-0.98,0.62c-0.4,0.07-0.8-0.02-1.13-0.25s-0.55-0.58-0.62-0.98
			s0.02-0.8,0.25-1.13l4.2-6c1.19-1.7,0.78-4.06-0.93-5.25c-0.83-0.58-1.83-0.8-2.82-0.62c-0.99,0.17-1.86,0.73-2.43,1.55
			l-8.43,12.04c-0.23,0.33-0.58,0.55-0.98,0.62c-0.4,0.07-0.8-0.02-1.13-0.25c-0.33-0.23-0.55-0.58-0.62-0.98
			c-0.07-0.4,0.02-0.8,0.25-1.13l6.97-9.96c0.81-1.15,1.12-2.55,0.87-3.94c-0.24-1.39-1.01-2.6-2.17-3.4
			c-2.38-1.67-5.68-1.09-7.34,1.29l-13.04,18.62l1.23,0.86l13.04-18.62c1.19-1.7,3.55-2.12,5.26-0.93c0.83,0.58,1.38,1.44,1.55,2.44
			c0.18,0.99-0.05,1.99-0.62,2.82l-6.97,9.96c-0.95,1.36-0.62,3.25,0.74,4.2c0.66,0.46,1.46,0.64,2.25,0.5
			c0.79-0.14,1.48-0.58,1.95-1.24l8.43-12.04c0.35-0.5,0.87-0.83,1.47-0.93c0.6-0.11,1.2,0.03,1.7,0.38
			c1.03,0.72,1.28,2.14,0.56,3.16l-4.2,5.99c-0.46,0.66-0.64,1.46-0.5,2.25c0.14,0.79,0.58,1.48,1.24,1.95
			c0.66,0.46,1.46,0.64,2.25,0.5c0.79-0.14,1.48-0.58,1.95-1.24l5.12-7.32c0.23-0.33,0.58-0.55,0.98-0.62
			c0.4-0.07,0.8,0.02,1.13,0.25c0.33,0.23,0.55,0.58,0.62,0.98c0.07,0.4-0.02,0.8-0.25,1.13l-1.83,2.61
			c-0.42,0.59-0.58,1.31-0.45,2.03s0.52,1.34,1.12,1.75c0.46,0.32,1,0.49,1.55,0.49c0.16,0,0.32-0.01,0.48-0.04
			c0.71-0.12,1.34-0.52,1.75-1.12l2.42-3.45c0.38-0.55,1.14-0.68,1.69-0.3L980.07,523.19z M979.21,527.81
			c-0.42,0-0.76,0.34-0.76,0.76s0.34,0.76,0.76,0.76s0.76-0.34,0.76-0.76S979.63,527.81,979.21,527.81z"/>
		<g>
			<path class="st0" d="M935.92,534.12h5.95v1.2h-4.53v3.67h4.18v1.18h-4.18v5h-1.43V534.12z"/>
			<path class="st0" d="M945.54,534.12h1.43v9.86h4.72v1.2h-6.15V534.12z"/>
			<path class="st0" d="M963.41,539.53c0,3.81-2.31,5.82-5.13,5.82c-2.92,0-4.97-2.26-4.97-5.61c0-3.51,2.18-5.81,5.13-5.81
				C961.45,533.94,963.41,536.25,963.41,539.53z M954.83,539.71c0,2.36,1.28,4.48,3.53,4.48c2.26,0,3.54-2.08,3.54-4.59
				c0-2.2-1.15-4.5-3.53-4.5C956.01,535.1,954.83,537.28,954.83,539.71z"/>
			<path class="st0" d="M968.05,545.17l-2.8-11.06h1.51l1.31,5.59c0.33,1.38,0.62,2.76,0.82,3.82h0.03c0.18-1.1,0.52-2.41,0.9-3.84
				l1.48-5.58h1.49l1.35,5.61c0.31,1.31,0.61,2.62,0.77,3.79h0.03c0.23-1.21,0.54-2.44,0.89-3.82l1.46-5.58h1.46l-3.13,11.06h-1.49
				l-1.39-5.76c-0.34-1.41-0.57-2.49-0.72-3.61h-0.03c-0.2,1.1-0.44,2.18-0.85,3.61l-1.57,5.76H968.05z"/>
		</g>
	</g>
</g>
<g>
	<path class="st0" d="M889.71,523.19c-0.59-0.42-1.31-0.58-2.03-0.45c-0.71,0.12-1.34,0.52-1.75,1.12l-2.42,3.45
		c-0.19,0.27-0.46,0.44-0.78,0.5c-0.32,0.06-0.64-0.02-0.91-0.2c-0.27-0.19-0.44-0.46-0.5-0.78c-0.06-0.32,0.02-0.64,0.2-0.91
		l1.83-2.61c0.46-0.66,0.64-1.46,0.5-2.25c-0.14-0.79-0.58-1.49-1.24-1.95c-0.66-0.46-1.46-0.64-2.25-0.5
		c-0.79,0.14-1.48,0.58-1.95,1.24l-5.12,7.32c-0.23,0.33-0.58,0.55-0.98,0.62c-0.4,0.07-0.8-0.02-1.13-0.25s-0.55-0.58-0.62-0.98
		s0.02-0.8,0.25-1.13l4.2-6c1.19-1.7,0.78-4.06-0.93-5.25c-0.83-0.58-1.83-0.8-2.82-0.62c-0.99,0.17-1.86,0.73-2.43,1.55
		l-8.43,12.04c-0.23,0.33-0.58,0.55-0.98,0.62c-0.4,0.07-0.8-0.02-1.13-0.25c-0.33-0.23-0.55-0.58-0.62-0.98
		c-0.07-0.4,0.02-0.8,0.25-1.13l6.97-9.96c0.81-1.15,1.12-2.55,0.87-3.94c-0.24-1.39-1.01-2.6-2.17-3.4
		c-2.38-1.67-5.68-1.09-7.34,1.29l-13.04,18.62l1.23,0.86l13.04-18.62c1.19-1.7,3.55-2.12,5.26-0.93c0.83,0.58,1.38,1.44,1.55,2.44
		c0.18,0.99-0.05,1.99-0.62,2.82l-6.97,9.96c-0.95,1.36-0.62,3.25,0.74,4.2c0.66,0.46,1.46,0.64,2.25,0.5
		c0.79-0.14,1.48-0.58,1.95-1.24l8.43-12.04c0.35-0.5,0.87-0.83,1.47-0.93c0.6-0.11,1.2,0.03,1.7,0.38
		c1.03,0.72,1.28,2.14,0.56,3.16l-4.2,5.99c-0.46,0.66-0.64,1.46-0.5,2.25c0.14,0.79,0.58,1.48,1.24,1.95
		c0.66,0.46,1.46,0.64,2.25,0.5c0.79-0.14,1.48-0.58,1.95-1.24l5.12-7.32c0.23-0.33,0.58-0.55,0.98-0.62
		c0.4-0.07,0.8,0.02,1.13,0.25c0.33,0.23,0.55,0.58,0.62,0.98c0.07,0.4-0.02,0.8-0.25,1.13l-1.83,2.61
		c-0.42,0.59-0.58,1.31-0.45,2.03s0.52,1.34,1.12,1.75c0.46,0.32,1,0.49,1.55,0.49c0.16,0,0.32-0.01,0.48-0.04
		c0.71-0.12,1.34-0.52,1.75-1.12l2.42-3.45c0.38-0.55,1.14-0.68,1.69-0.3L889.71,523.19z M888.85,527.81
		c-0.42,0-0.76,0.34-0.76,0.76s0.34,0.76,0.76,0.76s0.76-0.34,0.76-0.76S889.27,527.81,888.85,527.81z"/>
	<g>
		<path class="st0" d="M845.56,534.12h5.95v1.2h-4.53v3.67h4.18v1.18h-4.18v5h-1.43V534.12z"/>
		<path class="st0" d="M855.19,534.12h1.43v9.86h4.72v1.2h-6.15V534.12z"/>
		<path class="st0" d="M873.05,539.53c0,3.81-2.31,5.82-5.13,5.82c-2.92,0-4.97-2.26-4.97-5.61c0-3.51,2.18-5.81,5.13-5.81
			C871.1,533.94,873.05,536.25,873.05,539.53z M864.47,539.71c0,2.36,1.28,4.48,3.53,4.48c2.26,0,3.54-2.08,3.54-4.59
			c0-2.2-1.15-4.5-3.53-4.5C865.65,535.1,864.47,537.28,864.47,539.71z"/>
		<path class="st0" d="M877.69,545.17l-2.8-11.06h1.51l1.31,5.59c0.33,1.38,0.62,2.76,0.82,3.82h0.03c0.18-1.1,0.52-2.41,0.9-3.84
			l1.48-5.58h1.49l1.35,5.61c0.31,1.31,0.61,2.62,0.77,3.79h0.03c0.23-1.21,0.54-2.44,0.89-3.82l1.46-5.58h1.46l-3.13,11.06h-1.49
			l-1.39-5.76c-0.34-1.41-0.57-2.49-0.72-3.61h-0.03c-0.2,1.1-0.44,2.18-0.85,3.61l-1.57,5.76H877.69z"/>
	</g>
</g>
<path class="st0" d="M807.33,523.19c-0.59-0.42-1.31-0.58-2.03-0.45c-0.71,0.12-1.34,0.52-1.75,1.12l-2.42,3.45
	c-0.19,0.27-0.46,0.44-0.78,0.5c-0.32,0.06-0.64-0.02-0.91-0.2c-0.27-0.19-0.44-0.46-0.5-0.78c-0.06-0.32,0.02-0.64,0.2-0.91
	l1.83-2.61c0.46-0.66,0.64-1.46,0.5-2.25c-0.14-0.79-0.58-1.49-1.24-1.95c-0.66-0.46-1.46-0.64-2.25-0.5
	c-0.79,0.14-1.48,0.58-1.95,1.24l-5.12,7.32c-0.23,0.33-0.58,0.55-0.98,0.62c-0.4,0.07-0.8-0.02-1.13-0.25s-0.55-0.58-0.62-0.98
	s0.02-0.8,0.25-1.13l4.2-6c1.19-1.7,0.78-4.06-0.93-5.25c-0.83-0.58-1.83-0.8-2.82-0.62c-0.99,0.17-1.86,0.73-2.43,1.55l-8.43,12.04
	c-0.23,0.33-0.58,0.55-0.98,0.62c-0.4,0.07-0.8-0.02-1.13-0.25c-0.33-0.23-0.55-0.58-0.62-0.98c-0.07-0.4,0.02-0.8,0.25-1.13
	l6.97-9.96c0.81-1.15,1.12-2.55,0.87-3.94c-0.24-1.39-1.01-2.6-2.17-3.4c-2.38-1.67-5.68-1.09-7.34,1.29l-13.04,18.62l1.23,0.86
	l13.04-18.62c1.19-1.7,3.55-2.12,5.26-0.93c0.83,0.58,1.38,1.44,1.55,2.44c0.18,0.99-0.05,1.99-0.62,2.82l-6.97,9.96
	c-0.95,1.36-0.62,3.25,0.74,4.2c0.66,0.46,1.46,0.64,2.25,0.5c0.79-0.14,1.48-0.58,1.95-1.24l8.43-12.04
	c0.35-0.5,0.87-0.83,1.47-0.93c0.6-0.11,1.2,0.03,1.7,0.38c1.03,0.72,1.28,2.14,0.56,3.16l-4.2,5.99c-0.46,0.66-0.64,1.46-0.5,2.25
	c0.14,0.79,0.58,1.48,1.24,1.95c0.66,0.46,1.46,0.64,2.25,0.5c0.79-0.14,1.48-0.58,1.95-1.24l5.12-7.32
	c0.23-0.33,0.58-0.55,0.98-0.62c0.4-0.07,0.8,0.02,1.13,0.25c0.33,0.23,0.55,0.58,0.62,0.98c0.07,0.4-0.02,0.8-0.25,1.13l-1.83,2.61
	c-0.42,0.59-0.58,1.31-0.45,2.03s0.52,1.34,1.12,1.75c0.46,0.32,1,0.49,1.55,0.49c0.16,0,0.32-0.01,0.48-0.04
	c0.71-0.12,1.34-0.52,1.75-1.12l2.42-3.45c0.38-0.55,1.14-0.68,1.69-0.3L807.33,523.19z M806.47,527.81c-0.42,0-0.76,0.34-0.76,0.76
	s0.34,0.76,0.76,0.76s0.76-0.34,0.76-0.76S806.89,527.81,806.47,527.81z"/>
<g>
	<path class="st0" d="M1077.58,527.28c-0.59-0.42-1.31-0.58-2.03-0.45c-0.71,0.12-1.34,0.52-1.75,1.12l-2.42,3.45
		c-0.19,0.27-0.46,0.44-0.78,0.5c-0.32,0.06-0.64-0.02-0.91-0.2c-0.27-0.19-0.44-0.46-0.5-0.78c-0.06-0.32,0.02-0.64,0.2-0.91
		l1.83-2.61c0.46-0.66,0.64-1.46,0.5-2.25c-0.14-0.79-0.58-1.49-1.24-1.95c-0.66-0.46-1.46-0.64-2.25-0.5
		c-0.79,0.14-1.48,0.58-1.95,1.24l-5.12,7.32c-0.23,0.33-0.58,0.55-0.98,0.62c-0.4,0.07-0.8-0.02-1.13-0.25s-0.55-0.58-0.62-0.98
		s0.02-0.8,0.25-1.13l4.2-6c1.19-1.7,0.78-4.06-0.93-5.25c-0.83-0.58-1.83-0.8-2.82-0.62c-0.99,0.17-1.86,0.73-2.43,1.55
		l-8.43,12.04c-0.23,0.33-0.58,0.55-0.98,0.62c-0.4,0.07-0.8-0.02-1.13-0.25c-0.33-0.23-0.55-0.58-0.62-0.98
		c-0.07-0.4,0.02-0.8,0.25-1.13l6.97-9.96c0.81-1.15,1.12-2.55,0.87-3.94c-0.24-1.39-1.01-2.6-2.17-3.4
		c-2.38-1.67-5.68-1.09-7.34,1.29l-13.04,18.62l1.23,0.86l13.04-18.62c1.19-1.7,3.55-2.12,5.26-0.93c0.83,0.58,1.38,1.44,1.55,2.44
		c0.18,0.99-0.05,1.99-0.62,2.82l-6.97,9.96c-0.95,1.36-0.62,3.25,0.74,4.2c0.66,0.46,1.46,0.64,2.25,0.5
		c0.79-0.14,1.48-0.58,1.95-1.24l8.43-12.04c0.35-0.5,0.87-0.83,1.47-0.93c0.6-0.11,1.2,0.03,1.7,0.38
		c1.03,0.72,1.28,2.14,0.56,3.16l-4.2,5.99c-0.46,0.66-0.64,1.46-0.5,2.25c0.14,0.79,0.58,1.48,1.24,1.95
		c0.66,0.46,1.46,0.64,2.25,0.5c0.79-0.14,1.48-0.58,1.95-1.24l5.12-7.32c0.23-0.33,0.58-0.55,0.98-0.62
		c0.4-0.07,0.8,0.02,1.13,0.25c0.33,0.23,0.55,0.58,0.62,0.98c0.07,0.4-0.02,0.8-0.25,1.13l-1.83,2.61
		c-0.42,0.59-0.58,1.31-0.45,2.03s0.52,1.34,1.12,1.75c0.46,0.32,1,0.49,1.55,0.49c0.16,0,0.32-0.01,0.48-0.04
		c0.71-0.12,1.34-0.52,1.75-1.12l2.42-3.45c0.38-0.55,1.14-0.68,1.69-0.3L1077.58,527.28z M1076.72,531.9
		c-0.42,0-0.76,0.34-0.76,0.76s0.34,0.76,0.76,0.76s0.76-0.34,0.76-0.76S1077.14,531.9,1076.72,531.9z"/>
	<path class="st0" d="M1054.16,555.9c-16.96,0-30.75-13.79-30.75-30.75s13.79-30.75,30.75-30.75c16.96,0,30.75,13.79,30.75,30.75
		S1071.11,555.9,1054.16,555.9z M1054.16,495.9c-16.13,0-29.25,13.12-29.25,29.25s13.12,29.25,29.25,29.25
		c16.13,0,29.25-13.12,29.25-29.25S1070.29,495.9,1054.16,495.9z"/>
</g>
<g>
	<path class="st1" d="M987.53,429.6h-61.5v-61.5h61.5V429.6z M927.53,428.1h58.5v-58.5h-58.5V428.1z"/>
	<g>
		<path class="st1" d="M980.07,396.89c-0.59-0.42-1.31-0.58-2.03-0.45c-0.71,0.12-1.34,0.52-1.75,1.12l-2.42,3.45
			c-0.19,0.27-0.46,0.44-0.78,0.5c-0.32,0.06-0.64-0.02-0.91-0.2c-0.27-0.19-0.44-0.46-0.5-0.78c-0.06-0.32,0.02-0.64,0.2-0.91
			l1.83-2.61c0.46-0.66,0.64-1.46,0.5-2.25c-0.14-0.79-0.58-1.49-1.24-1.95c-0.66-0.46-1.46-0.64-2.25-0.5
			c-0.79,0.14-1.48,0.58-1.95,1.24l-5.12,7.32c-0.23,0.33-0.58,0.55-0.98,0.62c-0.4,0.07-0.8-0.02-1.13-0.25s-0.55-0.58-0.62-0.98
			s0.02-0.8,0.25-1.13l4.2-6c1.19-1.7,0.78-4.06-0.93-5.25c-0.83-0.58-1.83-0.8-2.82-0.62c-0.99,0.17-1.86,0.73-2.43,1.55
			l-8.43,12.04c-0.23,0.33-0.58,0.55-0.98,0.62c-0.4,0.07-0.8-0.02-1.13-0.25c-0.33-0.23-0.55-0.58-0.62-0.98
			c-0.07-0.4,0.02-0.8,0.25-1.13l6.97-9.96c0.81-1.15,1.12-2.55,0.87-3.94c-0.24-1.39-1.01-2.6-2.17-3.4
			c-2.38-1.67-5.68-1.09-7.34,1.29l-13.04,18.62l1.23,0.86l13.04-18.62c1.19-1.7,3.55-2.12,5.26-0.93c0.83,0.58,1.38,1.44,1.55,2.44
			c0.18,0.99-0.05,1.99-0.62,2.82l-6.97,9.96c-0.95,1.36-0.62,3.25,0.74,4.2c0.66,0.46,1.46,0.64,2.25,0.5
			c0.79-0.14,1.48-0.58,1.95-1.24l8.43-12.04c0.35-0.5,0.87-0.83,1.47-0.93c0.6-0.11,1.2,0.03,1.7,0.38
			c1.03,0.72,1.28,2.14,0.56,3.16l-4.2,5.99c-0.46,0.66-0.64,1.46-0.5,2.25c0.14,0.79,0.58,1.48,1.24,1.95
			c0.66,0.46,1.46,0.64,2.25,0.5c0.79-0.14,1.48-0.58,1.95-1.24l5.12-7.32c0.23-0.33,0.58-0.55,0.98-0.62
			c0.4-0.07,0.8,0.02,1.13,0.25c0.33,0.23,0.55,0.58,0.62,0.98c0.07,0.4-0.02,0.8-0.25,1.13l-1.83,2.61
			c-0.42,0.59-0.58,1.31-0.45,2.03s0.52,1.34,1.12,1.75c0.46,0.32,1,0.49,1.55,0.49c0.16,0,0.32-0.01,0.48-0.04
			c0.71-0.12,1.34-0.52,1.75-1.12l2.42-3.45c0.38-0.55,1.14-0.68,1.69-0.3L980.07,396.89z M979.21,401.51
			c-0.42,0-0.76,0.34-0.76,0.76s0.34,0.76,0.76,0.76s0.76-0.34,0.76-0.76S979.63,401.51,979.21,401.51z"/>
		<g>
			<path class="st1" d="M935.92,407.82h5.95v1.2h-4.53v3.67h4.18v1.18h-4.18v5h-1.43V407.82z"/>
			<path class="st1" d="M945.54,407.82h1.43v9.86h4.72v1.2h-6.15V407.82z"/>
			<path class="st1" d="M963.41,413.23c0,3.81-2.31,5.82-5.13,5.82c-2.92,0-4.97-2.26-4.97-5.61c0-3.51,2.18-5.81,5.13-5.81
				C961.45,407.64,963.41,409.95,963.41,413.23z M954.83,413.41c0,2.36,1.28,4.48,3.53,4.48c2.26,0,3.54-2.08,3.54-4.59
				c0-2.2-1.15-4.49-3.53-4.49C956.01,408.8,954.83,410.99,954.83,413.41z"/>
			<path class="st1" d="M968.05,418.87l-2.8-11.06h1.51l1.31,5.59c0.33,1.38,0.62,2.76,0.82,3.82h0.03c0.18-1.1,0.52-2.41,0.9-3.84
				l1.48-5.58h1.49l1.35,5.61c0.31,1.31,0.61,2.62,0.77,3.79h0.03c0.23-1.21,0.54-2.44,0.89-3.82l1.46-5.58h1.46l-3.13,11.06h-1.49
				l-1.39-5.76c-0.34-1.41-0.57-2.49-0.72-3.61h-0.03c-0.2,1.1-0.44,2.18-0.85,3.61l-1.57,5.76H968.05z"/>
		</g>
	</g>
</g>
<g>
	<path class="st1" d="M951.89,198.51h-61.5v-61.5h61.5V198.51z M891.89,197.01h58.5v-58.5h-58.5V197.01z"/>
	<g>
		<path class="st1" d="M944.43,165.81c-0.59-0.42-1.31-0.58-2.03-0.45c-0.71,0.12-1.34,0.52-1.75,1.12l-2.42,3.45
			c-0.19,0.27-0.46,0.44-0.78,0.5c-0.32,0.06-0.64-0.02-0.91-0.2c-0.27-0.19-0.44-0.46-0.5-0.78c-0.06-0.32,0.02-0.64,0.2-0.91
			l1.83-2.61c0.46-0.66,0.64-1.46,0.5-2.25c-0.14-0.79-0.58-1.49-1.24-1.95c-0.66-0.46-1.46-0.64-2.25-0.5
			c-0.79,0.14-1.48,0.58-1.95,1.24l-5.12,7.32c-0.23,0.33-0.58,0.55-0.98,0.62c-0.4,0.07-0.8-0.02-1.13-0.25s-0.55-0.58-0.62-0.98
			s0.02-0.8,0.25-1.13l4.2-6c1.19-1.7,0.78-4.06-0.93-5.25c-0.83-0.58-1.83-0.8-2.82-0.62c-0.99,0.17-1.86,0.73-2.43,1.55
			l-8.43,12.04c-0.23,0.33-0.58,0.55-0.98,0.62c-0.4,0.07-0.8-0.02-1.13-0.25c-0.33-0.23-0.55-0.58-0.62-0.98
			c-0.07-0.4,0.02-0.8,0.25-1.13l6.97-9.96c0.81-1.15,1.12-2.55,0.87-3.94c-0.24-1.39-1.01-2.6-2.17-3.4
			c-2.38-1.67-5.68-1.09-7.34,1.29l-13.04,18.62l1.23,0.86l13.04-18.62c1.19-1.7,3.55-2.12,5.26-0.93c0.83,0.58,1.38,1.44,1.55,2.44
			c0.18,0.99-0.05,1.99-0.62,2.82l-6.97,9.96c-0.95,1.36-0.62,3.25,0.74,4.2c0.66,0.46,1.46,0.64,2.25,0.5
			c0.79-0.14,1.48-0.58,1.95-1.24l8.43-12.04c0.35-0.5,0.87-0.83,1.47-0.93c0.6-0.11,1.2,0.03,1.7,0.38
			c1.03,0.72,1.28,2.14,0.56,3.16l-4.2,5.99c-0.46,0.66-0.64,1.46-0.5,2.25c0.14,0.79,0.58,1.48,1.24,1.95
			c0.66,0.46,1.46,0.64,2.25,0.5c0.79-0.14,1.48-0.58,1.95-1.24l5.12-7.32c0.23-0.33,0.58-0.55,0.98-0.62
			c0.4-0.07,0.8,0.02,1.13,0.25c0.33,0.23,0.55,0.58,0.62,0.98c0.07,0.4-0.02,0.8-0.25,1.13l-1.83,2.61
			c-0.42,0.59-0.58,1.31-0.45,2.03s0.52,1.34,1.12,1.75c0.46,0.32,1,0.49,1.55,0.49c0.16,0,0.32-0.01,0.48-0.04
			c0.71-0.12,1.34-0.52,1.75-1.12l2.42-3.45c0.38-0.55,1.14-0.68,1.69-0.3L944.43,165.81z M943.57,170.43
			c-0.42,0-0.76,0.34-0.76,0.76s0.34,0.76,0.76,0.76s0.76-0.34,0.76-0.76S943.99,170.43,943.57,170.43z"/>
		<g>
			<path class="st1" d="M900.28,176.73h5.95v1.2h-4.53v3.67h4.18v1.18h-4.18v5h-1.43V176.73z"/>
			<path class="st1" d="M909.9,176.73h1.43v9.86h4.72v1.2h-6.15V176.73z"/>
			<path class="st1" d="M927.77,182.14c0,3.81-2.31,5.82-5.13,5.82c-2.92,0-4.97-2.26-4.97-5.61c0-3.51,2.18-5.81,5.13-5.81
				C925.81,176.55,927.77,178.86,927.77,182.14z M919.19,182.33c0,2.36,1.28,4.48,3.53,4.48c2.26,0,3.54-2.08,3.54-4.59
				c0-2.2-1.15-4.49-3.53-4.49C920.37,177.72,919.19,179.9,919.19,182.33z"/>
			<path class="st1" d="M932.41,187.79l-2.8-11.06h1.51l1.31,5.59c0.33,1.38,0.62,2.76,0.82,3.82h0.03c0.18-1.1,0.52-2.41,0.9-3.84
				l1.48-5.58h1.49l1.35,5.61c0.31,1.31,0.61,2.62,0.77,3.79h0.03c0.23-1.21,0.54-2.44,0.89-3.82l1.46-5.58h1.46l-3.13,11.06h-1.49
				l-1.39-5.76c-0.34-1.41-0.57-2.49-0.72-3.61h-0.03c-0.2,1.1-0.44,2.18-0.85,3.61l-1.57,5.76H932.41z"/>
		</g>
	</g>
</g>
<g>
	<path class="st1" d="M889.71,396.89c-0.59-0.42-1.31-0.58-2.03-0.45c-0.71,0.12-1.34,0.52-1.75,1.12l-2.42,3.45
		c-0.19,0.27-0.46,0.44-0.78,0.5c-0.32,0.06-0.64-0.02-0.91-0.2c-0.27-0.19-0.44-0.46-0.5-0.78c-0.06-0.32,0.02-0.64,0.2-0.91
		l1.83-2.61c0.46-0.66,0.64-1.46,0.5-2.25c-0.14-0.79-0.58-1.49-1.24-1.95c-0.66-0.46-1.46-0.64-2.25-0.5
		c-0.79,0.14-1.48,0.58-1.95,1.24l-5.12,7.32c-0.23,0.33-0.58,0.55-0.98,0.62c-0.4,0.07-0.8-0.02-1.13-0.25s-0.55-0.58-0.62-0.98
		s0.02-0.8,0.25-1.13l4.2-6c1.19-1.7,0.78-4.06-0.93-5.25c-0.83-0.58-1.83-0.8-2.82-0.62c-0.99,0.17-1.86,0.73-2.43,1.55
		l-8.43,12.04c-0.23,0.33-0.58,0.55-0.98,0.62c-0.4,0.07-0.8-0.02-1.13-0.25c-0.33-0.23-0.55-0.58-0.62-0.98
		c-0.07-0.4,0.02-0.8,0.25-1.13l6.97-9.96c0.81-1.15,1.12-2.55,0.87-3.94c-0.24-1.39-1.01-2.6-2.17-3.4
		c-2.38-1.67-5.68-1.09-7.34,1.29l-13.04,18.62l1.23,0.86l13.04-18.62c1.19-1.7,3.55-2.12,5.26-0.93c0.83,0.58,1.38,1.44,1.55,2.44
		c0.18,0.99-0.05,1.99-0.62,2.82l-6.97,9.96c-0.95,1.36-0.62,3.25,0.74,4.2c0.66,0.46,1.46,0.64,2.25,0.5
		c0.79-0.14,1.48-0.58,1.95-1.24l8.43-12.04c0.35-0.5,0.87-0.83,1.47-0.93c0.6-0.11,1.2,0.03,1.7,0.38
		c1.03,0.72,1.28,2.14,0.56,3.16l-4.2,5.99c-0.46,0.66-0.64,1.46-0.5,2.25c0.14,0.79,0.58,1.48,1.24,1.95
		c0.66,0.46,1.46,0.64,2.25,0.5c0.79-0.14,1.48-0.58,1.95-1.24l5.12-7.32c0.23-0.33,0.58-0.55,0.98-0.62
		c0.4-0.07,0.8,0.02,1.13,0.25c0.33,0.23,0.55,0.58,0.62,0.98c0.07,0.4-0.02,0.8-0.25,1.13l-1.83,2.61
		c-0.42,0.59-0.58,1.31-0.45,2.03s0.52,1.34,1.12,1.75c0.46,0.32,1,0.49,1.55,0.49c0.16,0,0.32-0.01,0.48-0.04
		c0.71-0.12,1.34-0.52,1.75-1.12l2.42-3.45c0.38-0.55,1.14-0.68,1.69-0.3L889.71,396.89z M888.85,401.51
		c-0.42,0-0.76,0.34-0.76,0.76s0.34,0.76,0.76,0.76s0.76-0.34,0.76-0.76S889.27,401.51,888.85,401.51z"/>
	<g>
		<path class="st1" d="M845.56,407.82h5.95v1.2h-4.53v3.67h4.18v1.18h-4.18v5h-1.43V407.82z"/>
		<path class="st1" d="M855.19,407.82h1.43v9.86h4.72v1.2h-6.15V407.82z"/>
		<path class="st1" d="M873.05,413.23c0,3.81-2.31,5.82-5.13,5.82c-2.92,0-4.97-2.26-4.97-5.61c0-3.51,2.18-5.81,5.13-5.81
			C871.1,407.64,873.05,409.95,873.05,413.23z M864.47,413.41c0,2.36,1.28,4.48,3.53,4.48c2.26,0,3.54-2.08,3.54-4.59
			c0-2.2-1.15-4.49-3.53-4.49C865.65,408.8,864.47,410.99,864.47,413.41z"/>
		<path class="st1" d="M877.69,418.87l-2.8-11.06h1.51l1.31,5.59c0.33,1.38,0.62,2.76,0.82,3.82h0.03c0.18-1.1,0.52-2.41,0.9-3.84
			l1.48-5.58h1.49l1.35,5.61c0.31,1.31,0.61,2.62,0.77,3.79h0.03c0.23-1.21,0.54-2.44,0.89-3.82l1.46-5.58h1.46l-3.13,11.06h-1.49
			l-1.39-5.76c-0.34-1.41-0.57-2.49-0.72-3.61h-0.03c-0.2,1.1-0.44,2.18-0.85,3.61l-1.57,5.76H877.69z"/>
	</g>
</g>
<path class="st1" d="M807.33,396.89c-0.59-0.42-1.31-0.58-2.03-0.45c-0.71,0.12-1.34,0.52-1.75,1.12l-2.42,3.45
	c-0.19,0.27-0.46,0.44-0.78,0.5c-0.32,0.06-0.64-0.02-0.91-0.2c-0.27-0.19-0.44-0.46-0.5-0.78c-0.06-0.32,0.02-0.64,0.2-0.91
	l1.83-2.61c0.46-0.66,0.64-1.46,0.5-2.25c-0.14-0.79-0.58-1.49-1.24-1.95c-0.66-0.46-1.46-0.64-2.25-0.5
	c-0.79,0.14-1.48,0.58-1.95,1.24l-5.12,7.32c-0.23,0.33-0.58,0.55-0.98,0.62c-0.4,0.07-0.8-0.02-1.13-0.25s-0.55-0.58-0.62-0.98
	s0.02-0.8,0.25-1.13l4.2-6c1.19-1.7,0.78-4.06-0.93-5.25c-0.83-0.58-1.83-0.8-2.82-0.62c-0.99,0.17-1.86,0.73-2.43,1.55l-8.43,12.04
	c-0.23,0.33-0.58,0.55-0.98,0.62c-0.4,0.07-0.8-0.02-1.13-0.25c-0.33-0.23-0.55-0.58-0.62-0.98c-0.07-0.4,0.02-0.8,0.25-1.13
	l6.97-9.96c0.81-1.15,1.12-2.55,0.87-3.94c-0.24-1.39-1.01-2.6-2.17-3.4c-2.38-1.67-5.68-1.09-7.34,1.29l-13.04,18.62l1.23,0.86
	l13.04-18.62c1.19-1.7,3.55-2.12,5.26-0.93c0.83,0.58,1.38,1.44,1.55,2.44c0.18,0.99-0.05,1.99-0.62,2.82l-6.97,9.96
	c-0.95,1.36-0.62,3.25,0.74,4.2c0.66,0.46,1.46,0.64,2.25,0.5c0.79-0.14,1.48-0.58,1.95-1.24l8.43-12.04
	c0.35-0.5,0.87-0.83,1.47-0.93c0.6-0.11,1.2,0.03,1.7,0.38c1.03,0.72,1.28,2.14,0.56,3.16l-4.2,5.99c-0.46,0.66-0.64,1.46-0.5,2.25
	c0.14,0.79,0.58,1.48,1.24,1.95c0.66,0.46,1.46,0.64,2.25,0.5c0.79-0.14,1.48-0.58,1.95-1.24l5.12-7.32
	c0.23-0.33,0.58-0.55,0.98-0.62c0.4-0.07,0.8,0.02,1.13,0.25c0.33,0.23,0.55,0.58,0.62,0.98c0.07,0.4-0.02,0.8-0.25,1.13l-1.83,2.61
	c-0.42,0.59-0.58,1.31-0.45,2.03s0.52,1.34,1.12,1.75c0.46,0.32,1,0.49,1.55,0.49c0.16,0,0.32-0.01,0.48-0.04
	c0.71-0.12,1.34-0.52,1.75-1.12l2.42-3.45c0.38-0.55,1.14-0.68,1.69-0.3L807.33,396.89z M806.47,401.51c-0.42,0-0.76,0.34-0.76,0.76
	s0.34,0.76,0.76,0.76s0.76-0.34,0.76-0.76S806.89,401.51,806.47,401.51z"/>
<g>
	<path class="st1" d="M1077.58,400.98c-0.59-0.42-1.31-0.58-2.03-0.45c-0.71,0.12-1.34,0.52-1.75,1.12l-2.42,3.45
		c-0.19,0.27-0.46,0.44-0.78,0.5c-0.32,0.06-0.64-0.02-0.91-0.2c-0.27-0.19-0.44-0.46-0.5-0.78c-0.06-0.32,0.02-0.64,0.2-0.91
		l1.83-2.61c0.46-0.66,0.64-1.46,0.5-2.25c-0.14-0.79-0.58-1.49-1.24-1.95c-0.66-0.46-1.46-0.64-2.25-0.5
		c-0.79,0.14-1.48,0.58-1.95,1.24l-5.12,7.32c-0.23,0.33-0.58,0.55-0.98,0.62c-0.4,0.07-0.8-0.02-1.13-0.25s-0.55-0.58-0.62-0.98
		s0.02-0.8,0.25-1.13l4.2-6c1.19-1.7,0.78-4.06-0.93-5.25c-0.83-0.58-1.83-0.8-2.82-0.62c-0.99,0.17-1.86,0.73-2.43,1.55
		l-8.43,12.04c-0.23,0.33-0.58,0.55-0.98,0.62c-0.4,0.07-0.8-0.02-1.13-0.25c-0.33-0.23-0.55-0.58-0.62-0.98
		c-0.07-0.4,0.02-0.8,0.25-1.13l6.97-9.96c0.81-1.15,1.12-2.55,0.87-3.94c-0.24-1.39-1.01-2.6-2.17-3.4
		c-2.38-1.67-5.68-1.09-7.34,1.29l-13.04,18.62l1.23,0.86l13.04-18.62c1.19-1.7,3.55-2.12,5.26-0.93c0.83,0.58,1.38,1.44,1.55,2.44
		c0.18,0.99-0.05,1.99-0.62,2.82l-6.97,9.96c-0.95,1.36-0.62,3.25,0.74,4.2c0.66,0.46,1.46,0.64,2.25,0.5
		c0.79-0.14,1.48-0.58,1.95-1.24l8.43-12.04c0.35-0.5,0.87-0.83,1.47-0.93c0.6-0.11,1.2,0.03,1.7,0.38
		c1.03,0.72,1.28,2.14,0.56,3.16l-4.2,5.99c-0.46,0.66-0.64,1.46-0.5,2.25c0.14,0.79,0.58,1.48,1.24,1.95
		c0.66,0.46,1.46,0.64,2.25,0.5c0.79-0.14,1.48-0.58,1.95-1.24l5.12-7.32c0.23-0.33,0.58-0.55,0.98-0.62
		c0.4-0.07,0.8,0.02,1.13,0.25c0.33,0.23,0.55,0.58,0.62,0.98c0.07,0.4-0.02,0.8-0.25,1.13l-1.83,2.61
		c-0.42,0.59-0.58,1.31-0.45,2.03s0.52,1.34,1.12,1.75c0.46,0.32,1,0.49,1.55,0.49c0.16,0,0.32-0.01,0.48-0.04
		c0.71-0.12,1.34-0.52,1.75-1.12l2.42-3.45c0.38-0.55,1.14-0.68,1.69-0.3L1077.58,400.98z M1076.72,405.6
		c-0.42,0-0.76,0.34-0.76,0.76s0.34,0.76,0.76,0.76s0.76-0.34,0.76-0.76S1077.14,405.6,1076.72,405.6z"/>
	<path class="st1" d="M1054.16,429.6c-16.96,0-30.75-13.79-30.75-30.75s13.79-30.75,30.75-30.75c16.96,0,30.75,13.79,30.75,30.75
		S1071.11,429.6,1054.16,429.6z M1054.16,369.6c-16.13,0-29.25,13.12-29.25,29.25s13.12,29.25,29.25,29.25
		c16.13,0,29.25-13.12,29.25-29.25S1070.29,369.6,1054.16,369.6z"/>
</g>
<g>
	<path class="st1" d="M1026.41,711.45h58.5v-58.5h-58.5V711.45z"/>
	<g>
		<path class="st0" d="M1078.95,680.24c-0.59-0.42-1.31-0.58-2.03-0.45c-0.71,0.12-1.34,0.52-1.75,1.12l-2.42,3.45
			c-0.19,0.27-0.46,0.44-0.78,0.5c-0.32,0.06-0.64-0.02-0.91-0.2c-0.27-0.19-0.44-0.46-0.5-0.78c-0.06-0.32,0.02-0.64,0.2-0.91
			l1.83-2.61c0.46-0.66,0.64-1.46,0.5-2.25c-0.14-0.79-0.58-1.49-1.24-1.95c-0.66-0.46-1.46-0.64-2.25-0.5
			c-0.79,0.14-1.48,0.58-1.95,1.24l-5.12,7.32c-0.23,0.33-0.58,0.55-0.98,0.62c-0.4,0.07-0.8-0.02-1.13-0.25s-0.55-0.58-0.62-0.98
			s0.02-0.8,0.25-1.13l4.2-6c1.19-1.7,0.78-4.06-0.93-5.25c-0.83-0.58-1.83-0.8-2.82-0.62c-0.99,0.17-1.86,0.73-2.43,1.55
			l-8.43,12.04c-0.23,0.33-0.58,0.55-0.98,0.62c-0.4,0.07-0.8-0.02-1.13-0.25c-0.33-0.23-0.55-0.58-0.62-0.98
			c-0.07-0.4,0.02-0.8,0.25-1.13l6.97-9.96c0.81-1.15,1.12-2.55,0.87-3.94c-0.24-1.39-1.01-2.6-2.17-3.4
			c-2.38-1.67-5.68-1.09-7.34,1.29l-13.04,18.62l1.23,0.86l13.04-18.62c1.19-1.7,3.55-2.12,5.26-0.93c0.83,0.58,1.38,1.44,1.55,2.44
			c0.18,0.99-0.05,1.99-0.62,2.82l-6.97,9.96c-0.95,1.36-0.62,3.25,0.74,4.2c0.66,0.46,1.46,0.64,2.25,0.5
			c0.79-0.14,1.48-0.58,1.95-1.24l8.43-12.04c0.35-0.5,0.87-0.83,1.47-0.93c0.6-0.11,1.2,0.03,1.7,0.38
			c1.03,0.72,1.28,2.14,0.56,3.16l-4.2,5.99c-0.46,0.66-0.64,1.46-0.5,2.25c0.14,0.79,0.58,1.48,1.24,1.95
			c0.66,0.46,1.46,0.64,2.25,0.5c0.79-0.14,1.48-0.58,1.95-1.24l5.12-7.32c0.23-0.33,0.58-0.55,0.98-0.62
			c0.4-0.07,0.8,0.02,1.13,0.25c0.33,0.23,0.55,0.58,0.62,0.98c0.07,0.4-0.02,0.8-0.25,1.13l-1.83,2.61
			c-0.42,0.59-0.58,1.31-0.45,2.03s0.52,1.34,1.12,1.75c0.46,0.32,1,0.49,1.55,0.49c0.16,0,0.32-0.01,0.48-0.04
			c0.71-0.12,1.34-0.52,1.75-1.12l2.42-3.45c0.38-0.55,1.14-0.68,1.69-0.3L1078.95,680.24z M1078.09,684.87
			c-0.42,0-0.76,0.34-0.76,0.76s0.34,0.76,0.76,0.76s0.76-0.34,0.76-0.76S1078.51,684.87,1078.09,684.87z"/>
		<g>
			<path class="st0" d="M1034.79,691.17h5.95v1.2h-4.53v3.67h4.18v1.18h-4.18v5h-1.43V691.17z"/>
			<path class="st0" d="M1044.42,691.17h1.43v9.86h4.72v1.2h-6.15V691.17z"/>
			<path class="st0" d="M1062.28,696.58c0,3.81-2.31,5.82-5.13,5.82c-2.92,0-4.97-2.26-4.97-5.61c0-3.51,2.18-5.81,5.13-5.81
				C1060.33,690.99,1062.28,693.3,1062.28,696.58z M1053.7,696.76c0,2.36,1.28,4.48,3.53,4.48c2.26,0,3.54-2.08,3.54-4.59
				c0-2.2-1.15-4.5-3.53-4.5C1054.89,692.15,1053.7,694.34,1053.7,696.76z"/>
			<path class="st0" d="M1066.92,702.23l-2.8-11.06h1.51l1.31,5.59c0.33,1.38,0.62,2.76,0.82,3.82h0.03c0.18-1.1,0.52-2.41,0.9-3.84
				l1.48-5.58h1.49l1.35,5.61c0.31,1.31,0.61,2.62,0.77,3.79h0.03c0.23-1.21,0.54-2.44,0.89-3.82l1.46-5.58h1.46l-3.13,11.06h-1.49
				l-1.39-5.76c-0.34-1.41-0.57-2.49-0.72-3.61h-0.03c-0.2,1.1-0.44,2.18-0.85,3.61l-1.57,5.76H1066.92z"/>
		</g>
	</g>
</g>
<g>
	<path class="st1" d="M784.08,652.95c-16.13,0-29.25,13.12-29.25,29.25s13.12,29.25,29.25,29.25c16.13,0,29.25-13.12,29.25-29.25
		S800.2,652.95,784.08,652.95z"/>
	<path class="st0" d="M807.5,684.33c-0.59-0.42-1.31-0.58-2.03-0.45c-0.71,0.12-1.34,0.52-1.75,1.12l-2.42,3.45
		c-0.19,0.27-0.46,0.44-0.78,0.5c-0.32,0.06-0.64-0.02-0.91-0.2c-0.27-0.19-0.44-0.46-0.5-0.78c-0.06-0.32,0.02-0.64,0.2-0.91
		l1.83-2.61c0.46-0.66,0.64-1.46,0.5-2.25c-0.14-0.79-0.58-1.49-1.24-1.95c-0.66-0.46-1.46-0.64-2.25-0.5
		c-0.79,0.14-1.48,0.58-1.95,1.24l-5.12,7.32c-0.23,0.33-0.58,0.55-0.98,0.62c-0.4,0.07-0.8-0.02-1.13-0.25s-0.55-0.58-0.62-0.98
		s0.02-0.8,0.25-1.13l4.2-6c1.19-1.7,0.78-4.06-0.93-5.25c-0.83-0.58-1.83-0.8-2.82-0.62c-0.99,0.17-1.86,0.73-2.43,1.55
		l-8.43,12.04c-0.23,0.33-0.58,0.55-0.98,0.62c-0.4,0.07-0.8-0.02-1.13-0.25c-0.33-0.23-0.55-0.58-0.62-0.98
		c-0.07-0.4,0.02-0.8,0.25-1.13l6.97-9.96c0.81-1.15,1.12-2.55,0.87-3.94c-0.24-1.39-1.01-2.6-2.17-3.4
		c-2.38-1.67-5.68-1.09-7.34,1.29l-13.04,18.62l1.23,0.86l13.04-18.62c1.19-1.7,3.55-2.12,5.26-0.93c0.83,0.58,1.38,1.44,1.55,2.44
		c0.18,0.99-0.05,1.99-0.62,2.82l-6.97,9.96c-0.95,1.36-0.62,3.25,0.74,4.2c0.66,0.46,1.46,0.64,2.25,0.5
		c0.79-0.14,1.48-0.58,1.95-1.24l8.43-12.04c0.35-0.5,0.87-0.83,1.47-0.93c0.6-0.11,1.2,0.03,1.7,0.38
		c1.03,0.72,1.28,2.14,0.56,3.16l-4.2,5.99c-0.46,0.66-0.64,1.46-0.5,2.25c0.14,0.79,0.58,1.48,1.24,1.95
		c0.66,0.46,1.46,0.64,2.25,0.5c0.79-0.14,1.48-0.58,1.95-1.24l5.12-7.32c0.23-0.33,0.58-0.55,0.98-0.62
		c0.4-0.07,0.8,0.02,1.13,0.25c0.33,0.23,0.55,0.58,0.62,0.98c0.07,0.4-0.02,0.8-0.25,1.13l-1.83,2.61
		c-0.42,0.59-0.58,1.31-0.45,2.03s0.52,1.34,1.12,1.75c0.46,0.32,1,0.49,1.55,0.49c0.16,0,0.32-0.01,0.48-0.04
		c0.71-0.12,1.34-0.52,1.75-1.12l2.42-3.45c0.38-0.55,1.14-0.68,1.69-0.3L807.5,684.33z M806.64,688.95c-0.42,0-0.76,0.34-0.76,0.76
		s0.34,0.76,0.76,0.76s0.76-0.34,0.76-0.76S807.06,688.95,806.64,688.95z"/>
</g>
<g>
	<rect x="871.14" y="633.45" class="st1" width="100" height="100"/>
	<g>
		<path class="st0" d="M951.89,714.2h-61.5v-61.5h61.5V714.2z M891.89,712.7h58.5v-58.5h-58.5V712.7z"/>
		<g>
			<path class="st0" d="M944.43,681.49c-0.59-0.42-1.31-0.58-2.03-0.45c-0.71,0.12-1.34,0.52-1.75,1.12l-2.42,3.45
				c-0.19,0.27-0.46,0.44-0.78,0.5c-0.32,0.06-0.64-0.02-0.91-0.2c-0.27-0.19-0.44-0.46-0.5-0.78c-0.06-0.32,0.02-0.64,0.2-0.91
				l1.83-2.61c0.46-0.66,0.64-1.46,0.5-2.25c-0.14-0.79-0.58-1.49-1.24-1.95c-0.66-0.46-1.46-0.64-2.25-0.5
				c-0.79,0.14-1.48,0.58-1.95,1.24l-5.12,7.32c-0.23,0.33-0.58,0.55-0.98,0.62c-0.4,0.07-0.8-0.02-1.13-0.25s-0.55-0.58-0.62-0.98
				s0.02-0.8,0.25-1.13l4.2-6c1.19-1.7,0.78-4.06-0.93-5.25c-0.83-0.58-1.83-0.8-2.82-0.62c-0.99,0.17-1.86,0.73-2.43,1.55
				l-8.43,12.04c-0.23,0.33-0.58,0.55-0.98,0.62c-0.4,0.07-0.8-0.02-1.13-0.25c-0.33-0.23-0.55-0.58-0.62-0.98
				c-0.07-0.4,0.02-0.8,0.25-1.13l6.97-9.96c0.81-1.15,1.12-2.55,0.87-3.94c-0.24-1.39-1.01-2.6-2.17-3.4
				c-2.38-1.67-5.68-1.09-7.34,1.29l-13.04,18.62l1.23,0.86l13.04-18.62c1.19-1.7,3.55-2.12,5.26-0.93
				c0.83,0.58,1.38,1.44,1.55,2.44c0.18,0.99-0.05,1.99-0.62,2.82l-6.97,9.96c-0.95,1.36-0.62,3.25,0.74,4.2
				c0.66,0.46,1.46,0.64,2.25,0.5c0.79-0.14,1.48-0.58,1.95-1.24l8.43-12.04c0.35-0.5,0.87-0.83,1.47-0.93
				c0.6-0.11,1.2,0.03,1.7,0.38c1.03,0.72,1.28,2.14,0.56,3.16l-4.2,5.99c-0.46,0.66-0.64,1.46-0.5,2.25
				c0.14,0.79,0.58,1.48,1.24,1.95c0.66,0.46,1.46,0.64,2.25,0.5c0.79-0.14,1.48-0.58,1.95-1.24l5.12-7.32
				c0.23-0.33,0.58-0.55,0.98-0.62c0.4-0.07,0.8,0.02,1.13,0.25c0.33,0.23,0.55,0.58,0.62,0.98c0.07,0.4-0.02,0.8-0.25,1.13
				l-1.83,2.61c-0.42,0.59-0.58,1.31-0.45,2.03s0.52,1.34,1.12,1.75c0.46,0.32,1,0.49,1.55,0.49c0.16,0,0.32-0.01,0.48-0.04
				c0.71-0.12,1.34-0.52,1.75-1.12l2.42-3.45c0.38-0.55,1.14-0.68,1.69-0.3L944.43,681.49z M943.57,686.11
				c-0.42,0-0.76,0.34-0.76,0.76s0.34,0.76,0.76,0.76s0.76-0.34,0.76-0.76S943.99,686.11,943.57,686.11z"/>
			<g>
				<path class="st0" d="M900.28,692.42h5.95v1.2h-4.53v3.67h4.18v1.18h-4.18v5h-1.43V692.42z"/>
				<path class="st0" d="M909.9,692.42h1.43v9.86h4.72v1.2h-6.15V692.42z"/>
				<path class="st0" d="M927.77,697.83c0,3.81-2.31,5.82-5.13,5.82c-2.92,0-4.97-2.26-4.97-5.61c0-3.51,2.18-5.81,5.13-5.81
					C925.81,692.24,927.77,694.55,927.77,697.83z M919.19,698.01c0,2.36,1.28,4.48,3.53,4.48c2.26,0,3.54-2.08,3.54-4.59
					c0-2.2-1.15-4.5-3.53-4.5C920.37,693.4,919.19,695.58,919.19,698.01z"/>
				<path class="st0" d="M932.41,703.47l-2.8-11.06h1.51l1.31,5.59c0.33,1.38,0.62,2.76,0.82,3.82h0.03c0.18-1.1,0.52-2.41,0.9-3.84
					l1.48-5.58h1.49l1.35,5.61c0.31,1.31,0.61,2.62,0.77,3.79h0.03c0.23-1.21,0.54-2.44,0.89-3.82l1.46-5.58h1.46l-3.13,11.06h-1.49
					l-1.39-5.76c-0.34-1.41-0.57-2.49-0.72-3.61h-0.03c-0.2,1.1-0.44,2.18-0.85,3.61l-1.57,5.76H932.41z"/>
			</g>
		</g>
	</g>
</g>
</svg>
