<svg xmlns="http://www.w3.org/2000/svg" viewBox="0 0 61.5 61.5"><defs><style>.cls-1{fill:#998674;}</style></defs><g id="Réteg_2" data-name="Réteg 2"><g id="Réteg_1" data-name="Réteg 1"><path class="cls-1" d="M54.17,32.88a2.64,2.64,0,0,0-2-.45,2.69,2.69,0,0,0-1.76,1.11L48,37a1.27,1.27,0,0,1-.79.5,1.21,1.21,0,0,1-1.4-1,1.15,1.15,0,0,1,.2-.9L47.82,33a3,3,0,1,0-4.94-3.46l-5.13,7.32a1.5,1.5,0,0,1-1,.62,1.52,1.52,0,0,1-1.13-.25,1.5,1.5,0,0,1-.62-1,1.52,1.52,0,0,1,.25-1.13l4.2-6a3.77,3.77,0,0,0-3.75-5.88,3.71,3.71,0,0,0-2.43,1.55l-8.43,12a1.53,1.53,0,0,1-1,.63,1.54,1.54,0,0,1-1.14-.25,1.53,1.53,0,0,1-.62-1,1.51,1.51,0,0,1,.25-1.13l7-10a5.27,5.27,0,1,0-8.64-6.05l-13,18.62,1.22.86L21.93,20a3.78,3.78,0,0,1,6.19,4.33l-7,9.95a3,3,0,0,0,.74,4.2,3,3,0,0,0,4.2-.74l8.44-12a2.28,2.28,0,0,1,3.16-.56,2.28,2.28,0,0,1,.56,3.17l-4.2,6A3,3,0,0,0,39,37.71l5.13-7.32a1.5,1.5,0,0,1,1-.62,1.54,1.54,0,0,1,1.14.25,1.52,1.52,0,0,1,.37,2.11l-1.83,2.62A2.72,2.72,0,0,0,47,39a2.59,2.59,0,0,0,.47-.05,2.65,2.65,0,0,0,1.75-1.11l2.42-3.46a1.22,1.22,0,0,1,1.69-.29Zm-.86,4.62a.76.76,0,1,0,.76.76A.76.76,0,0,0,53.31,37.5Z"/><path class="cls-1" d="M30.75,61.5A30.75,30.75,0,1,1,61.5,30.75,30.78,30.78,0,0,1,30.75,61.5Zm0-60A29.25,29.25,0,1,0,60,30.75,29.28,29.28,0,0,0,30.75,1.5Z"/></g></g></svg>