<svg xmlns="http://www.w3.org/2000/svg" viewBox="0 0 61.5 61.5"><defs><style>.cls-1{fill:#998674;}</style></defs><g id="Réteg_2" data-name="Réteg 2"><g id="Réteg_1" data-name="Réteg 1"><path class="cls-1" d="M61.5,61.5H0V0H61.5ZM1.5,60H60V1.5H1.5Z"/><path class="cls-1" d="M54,28.79a2.74,2.74,0,0,0-2-.45,2.71,2.71,0,0,0-1.75,1.12l-2.42,3.45a1.21,1.21,0,0,1-1.69.3,1.24,1.24,0,0,1-.5-.78,1.26,1.26,0,0,1,.2-.91l1.83-2.61a3,3,0,0,0-.74-4.2,3,3,0,0,0-2.25-.5,3,3,0,0,0-1.95,1.24l-5.12,7.31A1.52,1.52,0,1,1,35.13,31l4.2-6a3.77,3.77,0,0,0-6.18-4.33L24.72,32.75A1.51,1.51,0,0,1,22,32.14,1.42,1.42,0,0,1,22.24,31l7-10a5.27,5.27,0,0,0-1.3-7.34A5.27,5.27,0,0,0,20.57,15l-13,18.62,1.23.86,13-18.62A3.77,3.77,0,1,1,28,20.19l-7,10a3,3,0,0,0,3,4.7A3,3,0,0,0,26,33.61l8.43-12a2.26,2.26,0,0,1,1.47-.93,2.24,2.24,0,0,1,1.7.38,2.27,2.27,0,0,1,.55,3.16l-4.19,6a3,3,0,0,0,.74,4.2,2.91,2.91,0,0,0,2.25.5,3,3,0,0,0,2-1.24L44,26.31a1.51,1.51,0,0,1,2.73.6,1.46,1.46,0,0,1-.25,1.14l-1.83,2.61a2.71,2.71,0,0,0,.67,3.78,2.71,2.71,0,0,0,1.55.49,2.59,2.59,0,0,0,.48,0,2.71,2.71,0,0,0,1.75-1.12l2.42-3.45a1.22,1.22,0,0,1,1.69-.3Zm-.86,4.62a.76.76,0,1,0,.76.76A.76.76,0,0,0,53.18,33.41Z"/><path class="cls-1" d="M9.89,39.72h5.95v1.19H11.31v3.68H15.5v1.18H11.31v5H9.89Z"/><path class="cls-1" d="M19.51,39.72h1.43v9.86h4.72v1.19H19.51Z"/><path class="cls-1" d="M37.37,45.13c0,3.81-2.31,5.82-5.13,5.82s-5-2.26-5-5.61c0-3.51,2.18-5.8,5.13-5.8S37.37,41.85,37.37,45.13Zm-8.57.18c0,2.36,1.28,4.48,3.52,4.48s3.55-2.08,3.55-4.59c0-2.2-1.15-4.5-3.53-4.5S28.8,42.88,28.8,45.31Z"/><path class="cls-1" d="M42,50.77,39.21,39.72h1.51L42,45.31c.33,1.38.63,2.76.82,3.82h0c.18-1.1.53-2.41.91-3.84l1.47-5.57h1.5l1.34,5.61c.31,1.31.61,2.62.77,3.79h0c.23-1.22.55-2.45.89-3.83l1.46-5.57h1.46L49.58,50.77h-1.5L46.69,45A35.25,35.25,0,0,1,46,41.41h0A35.74,35.74,0,0,1,45.08,45l-1.57,5.75Z"/></g></g></svg>